<?xml version="1.0" encoding="utf-8"?>
<!-- Generator: Adobe Illustrator 16.0.3, SVG Export Plug-In . SVG Version: 6.00 Build 0)  -->
<!DOCTYPE svg PUBLIC "-//W3C//DTD SVG 1.1//EN" "http://www.w3.org/Graphics/SVG/1.1/DTD/svg11.dtd">
<svg version="1.1" id="Capa_1" xmlns="http://www.w3.org/2000/svg" xmlns:xlink="http://www.w3.org/1999/xlink" x="0px" y="0px"
	 width="400px" height="175px" viewBox="0 0 400 175" enable-background="new 0 0 400 175" xml:space="preserve">
<path fill-rule="evenodd" clip-rule="evenodd" fill="#2A2A2A" d="M33.989,110.326c-1.423,2.896-4.188,3.899-6.972,4.013
	c-7.458,0.306-14.933,0.288-22.399,0.225c-1.524-0.014-3.041-0.793-4.562-1.219c0-18,0-36,0-54c2.096,0.178,3.076-1.28,4.043-2.76
	C4.099,56.583,4.2,56.551,4.2,56.551C3.268,73.44,3.973,90.344,3.84,107.24c-0.029,3.565,2.496,4.234,5.468,4.22
	c8.28-0.039,16.575,0.326,24.798-1.049L33.989,110.326z"/>
<path fill-rule="evenodd" clip-rule="evenodd" fill="#838383" d="M400.057,120.345c-2.563-0.875-5.144-1.556-7.867-0.759
	c-0.053-0.688-0.105-1.375-0.158-2.062c1.914,0,3.83,0,5.52,0c1.959-3.177-2.025-7.633,2.506-10.18
	C400.057,111.678,400.057,116.012,400.057,120.345z"/>
<path fill-rule="evenodd" clip-rule="evenodd" fill="#EEE6E6" d="M212.543,75.38c-1.096-0.001-2.17,0.042-2.695,1.258
	c-1.398-0.236-1.988,0.356-1.791,1.753l0.045-0.05c-3.093,0.13-1.938,2.549-1.961,4.028c-0.119,7.727-0.188,15.46,0.012,23.183
	c0.073,2.838-0.788,4.742-3.253,5.993c-2.828,0.023-5.655,0.07-8.483,0.061c-1.975-0.008-4.69,0.585-5.552-1.306
	c-2.122-4.659-3.813-2.08-5.748-0.112c-0.074,2.11-1.541,2.222-3.12,2.173c-3.317-0.023-6.65,0.146-9.949-0.109
	c-8.202-0.636-12.785-4.923-13.912-12.979c-0.412-2.948-0.582-5.955-0.572-8.935c0.018-5.626,0.246-11.251,0.387-16.876
	c1.761-1.781,3.678-3.458,4.066-6.146l0.012-0.012c2.531-1.493,6.158-1.496,7.06-5.201c4.175-1.508,8.851-1.789,12.534-0.119
	c4.885,2.215,6.484-0.5,8.449-3.507c1.285-1.968,2.417-3.973,5.142-4.039c0.004,0.89,0.242,1.835,1.311,1.528
	c4.823-1.384,9.729-0.297,14.581-0.623c0,0-0.034-0.042-0.035-0.042c-0.677,1.315-0.299,2.304,0.937,3.027
	c1.092,0.042,2.183,0.085,3.274,0.127c-0.339,2.307-0.678,4.612-1.016,6.919c-1.029,0.023-2.072,0.117-2.069,1.479
	c0.002,1.373,1.066,1.429,2.082,1.465C213,70.648,212.586,73.021,212.543,75.38z M186.744,92.571
	c0.223-1.442-1.605-1.266-1.848-2.341c2.137-1.158,2.178-2.989,1.608-5.016c-0.052-4.934,1.739-10.303-3.322-14.052
	c-0.993-1.324-1.865-2.803-3.763-2.988c-5.941-2.685-11.096-2.239-14.183,1.225c-0.388,0.054-0.776,0.108-1.165,0.162
	c-2.427,0.662-3.484,2.731-3.857,4.769c-1.686,9.203-1.705,18.453,0.073,27.662c0.169,0.876,0.415,1.992,1.653,2.205
	c0.337,0.067,0.674,0.135,1.01,0.202c0.014,0.823-0.039,1.688,0.855,2.144c5.324,2.713,10.92,2.975,16.259,0.613
	c4.872-2.155,6.731-6.522,6.283-11.818C186.48,94.416,186.612,93.494,186.744,92.571z M191.589,82.932
	c-1.644,7.705-0.714,15.512-0.485,23.234c0.103,3.445,3.009,2.471,5.036,0.757c6.351,1.896,6.94,1.494,6.94-4.729
	c0-4.287-0.003-8.574-0.005-12.861c1.335-1.8,0.612-3.867,0.692-5.809c0.145-3.536-0.603-7.239,2.307-10.135
	c-1.154-1.433-0.254-4.39-3.456-4.388c-0.841,0.001-1.662-1.185-1.614-2.225c0.05-1.078,0.896-1.951,1.941-1.938
	c3.264,0.044,3.266-2.008,3.009-4.318c-1.742-4.589-5.505-1.895-8.243-1.974c-2.918-0.084-5.971,0.977-5.914,5.022l0.041,0.201
	c-1.006,1.357-1.034,2.687,0.109,3.984c-1.799,1.853-4.812,4.165-2.236,6.449c2.555,2.266,1.864,4.673,2.374,7.101
	C191.92,81.848,191.754,82.39,191.589,82.932z"/>
<path fill-rule="evenodd" clip-rule="evenodd" fill="#F20808" d="M32.121,82.054c0.149,0.31,0.394,0.435,0.732,0.374
	c0.389,0.281,0.776,0.563,1.164,0.844c0,0,0.112,0.111,0.111,0.111c0.283,0.383,0.567,0.767,0.852,1.149
	c1.525,3.496,1.25,7.201,1.263,10.873c-0.409,0.294-0.818,0.588-1.228,0.883c-4.162,0.098-7.608,3.093-11.836,2.928
	c1.683-3.248,0.889-6.733,0.646-10.068c-0.089-1.226-1.156-3.207-2.983-3.304c-1.122-0.059-1.053,1.436-1.37,2.316
	c-0.435,0.336-1.176,0.62-1.241,1.017c-0.154,0.938,0.642,1.211,1.443,1.307c0.081,2.694,0.161,5.389,0.241,8.082
	c-0.113,0.909-0.02,1.685,1.139,1.78c0.336,0.064,0.672,0.128,1.008,0.192c-0.017,0.234-0.014,0.469,0.008,0.703
	c-3.561-0.484-6.352,2.23-9.767,2.348c-0.431-2.49,1.739-3.767,2.665-5.619c0.512-1.022,1.561-1.967,0.453-3.055
	c-0.936-0.92-1.669-0.06-2.497,0.562c-2.614,1.957-3.986,1.729-3.907-2.056c0.164-7.768,0.145-15.543,0.001-23.312
	c-0.051-2.737,0.962-4.003,3.63-4.042c2.092,1.257,4.186,2.515,6.279,3.771c1.984,2.453-0.627,6.023,2.021,8.315
	c0.273,1.722,1.001,2.344,2.602,1.155c4.271-3.172,2.504-6.527,0.337-9.906c-0.787-1.584-1.667-2.991-3.808-2.003
	c-3.207,0.101-4.678-2.798-7.076-4.095c-0.844-2.248,0.719-2,2.062-1.992c5.765,0.032,11.544-0.229,17.263,0.803
	c0,0-0.08-0.024-0.08-0.023c0.313,0.403,0.626,0.807,0.938,1.21c0,0-0.063-0.087-0.063-0.086c0.258,0.396,0.516,0.794,0.773,1.19
	l0.471-0.131c0.184,0.466,0.367,0.932,0.551,1.396c-0.002,5.067,2.401,10.608-2.889,14.632c-0.408,0.193-1.152,0.365-1.167,0.586
	C30.811,81.646,31.391,81.993,32.121,82.054z"/>
<path fill-rule="evenodd" clip-rule="evenodd" fill="#F90707" d="M76.062,83.271c-1.038-0.287-2.077-0.574-3.114-0.861
	c-0.045-10.406,2.792-13.074,13.098-13.271c3.488-0.067,6.291,1.729,9.516,2.175c3.573,7.812,2.611,15.892,1.422,23.984
	c-1.678,0.828-3.421,1.609-2.951,4.017l-0.007,0.007c-4.02,0.763-5.509,4.438-8.005,6.953c-4.484,2.432-8.973,3.677-13.479,0.053
	c0.163-0.121,0.267-0.28,0.312-0.479c-0.999-9.302,0.347-16.813,11.286-19.831c4.851-1.339,5.075-5.826,1.834-10.539
	c-2.478-2.845-3.527-2.08-4.114,1.369c-0.365,2.146,1.477,5.048-1.829,6.364C78.706,83.23,77.384,83.25,76.062,83.271z
	 M83.09,101.545c0.699,2.429,2.207,2.245,3.697,0.928c2.024-1.79,1.543-8.752-0.631-11.178c-0.675-3.018-2.008-2.029-2.964-0.314
	C81.272,94.422,81.234,98.005,83.09,101.545z"/>
<path fill-rule="evenodd" clip-rule="evenodd" fill="#F60A0A" d="M308.993,83.363c0.204,6.059,0.407,12.117,0.61,18.176
	c-0.529,0.039-1.057,0.078-1.586,0.117c-0.924-2.057-1.895-4.082-3.703-5.549c-0.432-1.179-0.709-2.517-2.876-2.399
	c0.806,1.177,1.477,2.155,2.146,3.135c0.687,1.979,1.477,3.904,2.894,5.499c0.903,0.945,0.08,3.113,2.242,3.168
	c0.518,5.03-3.252,6.762-6.717,8.729c-0.319,0.087-0.639,0.174-0.958,0.261c-4.228,0.352-8.481,0.815-12.649-0.261
	c-1.661-0.43-3.543-0.846-4.383-2.741c-0.394-3.142,0.906-4.491,4.127-4.158c1.925,0.198,3.886,0.06,5.83,0.072
	c0.324,0.038,0.618,0.156,0.879,0.354c0.797,1.879,2.262,2.062,3.3,0.614c1.233-1.72,1.952-3.854-0.828-5.164
	c-3.465-1.951-6.829,0.87-10.267,0.217c-1.889-0.119-2.23-1.843-3.112-3.005c0.41-6.079-1.229-12.396,2.104-18.136
	c2.37-0.006,4.74-0.012,7.109-0.018c1.547,1.487,0.455,3.348,0.685,5.021c0.409,2.977-0.769,6.149,1.121,8.946
	c0.178,1.303,0.722,2.331,2.226,1.809c2.257-0.784,1.821-2.84,1.885-4.594C299.438,83.287,299.432,83.287,308.993,83.363z"/>
<path fill-rule="evenodd" clip-rule="evenodd" fill="#F20808" d="M118.453,102.404c-0.102,1.746-0.203,3.492-0.305,5.237
	c-3.045,0.13-6.091,0.26-9.137,0.389c-1.865-0.623-3.764-1.183-5.194-2.658c0.065-0.265,0.104-0.534,0.113-0.807
	c0.876-4.904-0.271-9.94,0.954-14.837c0.105-0.421-0.646-1.056-0.999-1.591c-1.101-3.245-1.326-6.584-1.205-9.986
	c0.042-1.165,0.612-2.735-1.335-3.127c0,0-0.012,0.017-0.013,0.018c-0.423-0.209-0.846-0.419-1.269-0.629
	c-0.123-0.367-0.246-0.734-0.369-1.101c0.447-1.531,0.771-3.134,2.319-4.032c1.413,1.034,2.21,3.328,4.893,2.356
	c-0.446-1.684-1.542-2.588-2.78-3.384c-0.205-2.589,0.869-3.946,3.588-3.884c2.248,0.053,4.498-0.016,6.748-0.031
	c0.193-0.076,0.383-0.068,0.568,0.024c-0.367,1.01-0.532,2.01,0.131,2.973c0.318,0.375,0.638,0.749,0.955,1.124
	c0.34,0.248,0.68,0.496,1.02,0.744c0.283-0.018,0.547,0.044,0.791,0.187c0.844,4.189-4.524,6.473-3.308,10.777
	c-0.171-0.145-0.363-0.253-0.576-0.325c-0.599-0.171-1.197-0.343-1.796-0.514c-0.354-0.369-0.707-0.737-1.061-1.105
	c-0.38-0.643-0.758-1.287-1.136-1.932c-0.147-1.601-0.755-2.817-2.596-2.769c-0.343,0.01-0.958,0.512-0.961,0.791
	c-0.013,1.48,1.126,2.163,2.239,2.801c0.266,0.152,0.611,0.168,0.92,0.246c0.414,0.377,0.828,0.753,1.242,1.13
	c0.39,0.635,0.779,1.269,1.168,1.903c0.506,0.326,1.011,0.653,1.516,0.979c0.265,0.17,0.552,0.229,0.861,0.175
	c0.037,0.571,0.075,1.143,0.113,1.714c-0.563,0.422-0.523,0.813,0.062,1.175c0.042,4.068,0.335,8.154,0.046,12.199
	C114.436,99.786,115.641,101.498,118.453,102.404z"/>
<path fill-rule="evenodd" clip-rule="evenodd" fill="#F90707" d="M277.903,85.387c0.319,3.678,0.231,7.331-0.63,10.94
	c-0.188,0.675-0.378,1.35-0.567,2.024c-0.321,0.001-0.539,0.151-0.652,0.451c-2.61,1.843-3.163,4.763-3.958,7.557
	c-0.162,0.305-0.197,0.624-0.103,0.956c-0.296,0.219-0.593,0.438-0.89,0.656c-2.705,1.159-5.631-3.936-8.229,0.289
	c-3.591,0.267-7.348,1.2-9.948-2.489c0.034-2.311,0.312-4.648,0.055-6.926c-0.604-5.362,1.321-8.615,6.611-10.516
	c3.058-1.099,6.95-1.535,8.567-5.26C271.38,83.96,275.413,81.431,277.903,85.387z M266.301,91.305
	c-0.744-3.466-2.205-1.557-2.977-0.207c-1.906,3.333-1.801,6.855-0.213,10.336c1.171,3.128,3.764,2.279,4.221,0.407
	C268.165,98.438,269.678,94.485,266.301,91.305z"/>
<path fill-rule="evenodd" clip-rule="evenodd" fill="#F60A0A" d="M246.811,73.423c0.442,2.767-0.299,5.222-1.953,7.438
	c-0.814,0.412-2.086,0.644-2.338,1.279c-0.389,0.979,0.781,1.086,1.559,1.205c2.145,2.082,3.162,4.575,2.981,7.602
	c-0.108,1.818,0.038,3.65,0.04,5.477c0.008,10.864,0.005,10.864-10.714,11.804c-0.013-0.253-0.058-0.5-0.137-0.741
	c1.497-4.604,0.465-9.335,0.63-14.003c0.063-1.773,0.955-4.008-1.391-5.236c-0.541-1.044-0.904-2.286-2.463-2.182
	c-1.041-0.114-1.1,0.503-0.949,1.275c-0.07,0.953-0.142,1.905-0.213,2.858c-1.518,0.803-2.334-1.579-3.836-0.846
	c0,0,0.021,0.022,0.022,0.022c0.26-2.261-1.06-2.981-3.01-3.086c-0.336-2.604-2.409-1.745-3.937-1.976
	c-0.136-1.441-0.21-2.849,1.771-3.074c0.392,0.033,0.781,0.066,1.171,0.1c1.738,2.609,3.578,4.444,6.143,0.813
	c2.076,0.603,3.252-1.013,4.718-1.913c1.616,1.652,1.929,0.507,2.087-0.972l-0.062-0.055c1.473,0.163,2.196-0.859,3.185-1.722
	C242.084,75.77,243.631,73.193,246.811,73.423z"/>
<path fill-rule="evenodd" clip-rule="evenodd" fill="#F00C0C" d="M142.366,70.271c0.621,0.656,1.242,1.313,1.863,1.971
	c0.116,0.396,0.232,0.79,0.349,1.185c0.158,1.274,0.314,2.549,0.473,3.822c-0.326,1.042-0.652,2.084-0.979,3.126
	c-3.273-0.104-6.548-0.207-9.822-0.312c-0.01-0.807,0.031-1.618-0.043-2.419c-0.141-1.53,0.184-3.849-2.104-3.523
	c-2.252,0.32-2.053,2.553-1.595,4.333c0.185,0.715,0.775,1.324,1.181,1.981c0.427,0.357,0.853,0.715,1.278,1.071
	c0.382,0.258,0.763,0.515,1.146,0.772c0.687,0.354,1.374,0.708,2.062,1.063c0.284,0.176,0.569,0.353,0.854,0.528
	c2.433,2.117,6.229,2.676,7.283,6.369c-0.799-0.164-1.668-0.181-2.386-0.517c-6.672-3.129-6.665-3.146-8.845,3.532
	c-0.916-0.487-1.833-0.975-2.75-1.461c-3.254-2.226-7.52-3.148-9.326-7.239c0.006-1.499,0.008-2.999,0.018-4.498
	c0.049-7.661,1.652-9.113,9.164-11.098C134.648,67.781,138.254,70.539,142.366,70.271z M131.968,88.841
	c-0.214-0.363-0.362-0.614-0.511-0.865c-0.324,0.342-0.771,0.633-0.941,1.04c-0.197,0.472,0.02,1.056,0.653,0.85
	C131.52,89.751,131.721,89.178,131.968,88.841z"/>
<path fill-rule="evenodd" clip-rule="evenodd" fill="#171717" d="M212.264,65.374c0.338-2.307,0.677-4.612,1.016-6.919
	c0.527-0.135,1.055-0.271,1.581-0.406c0.296,0.104,0.591,0.209,0.888,0.313c0.159,16.659-0.568,33.325,0.383,49.979
	c0.199,2.476,1.673,3.22,3.933,2.896c8.657,0.201,17.315,0.402,25.973,0.603c0.044,0.595,0.087,1.189,0.131,1.784
	c-1.279,1.553-3.058,0.941-4.622,0.957c-7.115,0.069-14.232,0.038-21.348,0.026c-7.362-0.012-7.636-0.269-7.648-7.44
	c-0.018-10.596-0.006-21.191-0.006-31.787c0.043-2.358,0.457-4.731-0.267-7.062C212.271,67.337,212.268,66.355,212.264,65.374z"/>
<path fill-rule="evenodd" clip-rule="evenodd" fill="#F90707" d="M55.031,88.2c-0.641,0.205-1.281,0.41-1.921,0.615
	c-0.865,0.504-1.731,1.009-2.597,1.513c-0.479,0.161-0.957,0.322-1.436,0.482c-2.35,0.716-4.699,1.431-7.049,2.146
	c-0.012-3.129-0.039-6.258-0.035-9.387c0.016-12.034,6.734-16.901,18.338-13.292c0.772,3.04,0.621,5.799-2.354,7.728
	c-1.324-0.47-0.866-2.608-2.547-2.721c-1.8-2.051-3.066-1.579-3.41,0.953c-0.234,1.719,0.057,3.509,0.111,5.267
	c0.201,2.5,2,2.763,3.946,2.82C55.73,85.616,55.381,86.908,55.031,88.2z"/>
<path fill-rule="evenodd" clip-rule="evenodd" fill="#F90707" d="M256.063,83.329c-1.049-0.152-2.098-0.305-3.143-0.457
	c-1.146-11.275,5.495-14.029,14.441-13.723c3.152,0.107,5.547,2.134,8.537,2.328c2.246,2.938,1.859,6.36,1.794,9.724
	c-3.175,0.134-6.349,0.268-9.523,0.401c-0.464-2.136,0.694-4.804-2.032-6.199c-2.047-2.25-3.467-2.445-4.043,1.084
	c-0.354,2.17,0.947,4.634-1.109,6.509C259.344,83.107,257.703,83.219,256.063,83.329z"/>
<path fill-rule="evenodd" clip-rule="evenodd" fill="#F00C0C" d="M313.252,98.839c-0.011-3.785-0.021-7.571-0.032-11.355
	c2.315-0.091,3.127,2.04,4.665,3.104c1.855,1.283,0.908-0.781,1.316-1.247c1.207,0.062,1.819,0.705,1.86,1.905
	c-1.291,3.249,1.401,3.417,3.268,4.225c1.53,1.707,0.179,4.682,2.634,5.981c1.102,1.613,2.758,0.682,4.16,0.911
	c0.334,1.049,0.953,1.858,1.963,2.338c0.357,0.878,0.715,1.757,1.073,2.635c-0.702,0.373-1.405,0.746-2.107,1.119
	c-5.254,0.403-10.433,0.374-15.093-2.629l-0.225-0.01c-1.034-1.844-2.068-3.688-3.104-5.53
	C313.505,99.804,313.379,99.321,313.252,98.839z"/>
<path fill-rule="evenodd" clip-rule="evenodd" fill="#1E1E1E" d="M155.949,73.462c-0.141,5.625-0.369,11.25-0.387,16.876
	c-0.01,2.979,0.16,5.986,0.572,8.935c1.127,8.056,5.71,12.343,13.912,12.979c3.299,0.256,6.632,0.086,9.949,0.109
	c-7.488,6.303-23.387,3.472-25.636-5.356c-2.816-11.056-3.146-22.525,0.685-33.675C155.344,73.397,155.645,73.442,155.949,73.462z"
	/>
<path fill-rule="evenodd" clip-rule="evenodd" fill="#F80202" d="M133.082,93.255c2.18-6.678,2.173-6.661,8.845-3.532
	c0.718,0.336,1.587,0.353,2.386,0.517c0.854,0.485,1.105,1.194,0.787,2.116c-1.076,0.766-1.031,1.402,0.219,1.901
	c0.912,3.172,0.085,6.213-0.703,9.256c-0.58,0.794-1.158,1.588-1.738,2.381c-3.57,2.146-7.277,3.57-11.518,2.188
	c0.121-0.27,0.162-0.551,0.123-0.844c0.781-1.105,0.871-2.431,2.711-3.063c3.9-1.339,4.106-6.116,0.662-8.826
	C134.266,94.651,133.674,93.953,133.082,93.255z"/>
<path fill-rule="evenodd" clip-rule="evenodd" fill="#F3E9E9" d="M121.006,84.555c1.807,4.091,6.072,5.014,9.326,7.239
	c-0.088,0.835-0.176,1.668-0.265,2.502c-10.23-2.341-10.995-1.722-9.858,7.98c-0.585,0.043-1.17,0.085-1.756,0.128
	c-2.813-0.906-4.018-2.618-3.791-5.769c0.289-4.045-0.004-8.131-0.046-12.199c-0.021-0.392-0.042-0.783-0.062-1.175
	c-0.038-0.571-0.076-1.143-0.113-1.715c0.061-0.46,0.119-0.92,0.179-1.38c-1.217-4.305,4.151-6.588,3.308-10.778
	c0-0.001,0.064,0.023,0.064,0.023c0.294,1.225,0.967,2.006,2.324,1.983C119.658,75.829,118.174,80.305,121.006,84.555z"/>
<path fill-rule="evenodd" clip-rule="evenodd" fill="#171717" d="M254.134,115.097c-1.835-0.205-3.688-0.359-5.04-1.869
	c-0.053-0.729-0.105-1.457-0.158-2.186c0.896-1.183,1.846-1.746,3.348-0.798c3.57,2.254,7.277,2.095,11.419,1.412
	c4.665-0.77,9.55-0.234,14.338-0.184c0.565,0.006,1.351,0.381,1.655,0.837c4.436,6.634,11.225,6.048,17.871,5.911
	c1.158-0.023,2.314-0.109,3.471-0.166c0.506,0.319,1.139,0.541,1.039,1.333c-4.377,2.727-9.138,2.748-14.009,1.985
	c-0.521-0.935-1.146-1.166-1.934-0.283c-3.614-0.299-6.656-1.732-8.774-4.729c-0.835-1.181-1.707-1.842-3.211-1.773
	c-5.382,0.244-10.799-0.483-16.152,0.591C256.732,113.999,255.444,114.029,254.134,115.097z"/>
<path fill-rule="evenodd" clip-rule="evenodd" fill="#F80202" d="M221.104,84.313c1.526,0.23,3.6-0.628,3.936,1.976
	c0.003,0.315,0.022,0.629,0.056,0.942c0.385,0.347,0.771,0.693,1.156,1.039c0.6,0.368,1.198,0.736,1.797,1.104l-0.021-0.022
	c0.024,0.655,0.05,1.312,0.074,1.968c-1.063,1.292,0.319,0.834,0.754,1.054c0.2,0.197,0.308,0.436,0.323,0.716
	c0.04,1.85,0.406,3.518,2.39,4.283c0.437,2.98,0.472,5.959-0.021,8.937c-3.17,0.026-6.342,0.053-9.513,0.079
	c0.029-1.011,0.059-2.021,0.087-3.031c0.809-0.51,1.859-1.003,1.488-2.147c-0.385-1.186-1.583-0.744-2.49-0.812
	C221.115,95.037,221.109,89.675,221.104,84.313z"/>
<path fill-rule="evenodd" clip-rule="evenodd" fill="#F20808" d="M339.056,72.347c0.314,0.91,0.628,1.82,0.942,2.73
	c-0.709,2.682-3.283,1.748-4.958,2.559c-1.837,0.113-3.674,0.227-5.511,0.34c-0.342-0.691-0.682-1.384-1.023-2.075
	c-0.414-2.085-1.244-3.16-2.932-0.941c-0.735,0.969-0.24,2.599-1.549,3.372c-2.95,0.019-5.9,0.037-8.851,0.056
	c2.896-8.172,4.218-9.085,13.136-9.075c1.998,0.003,3.998,0.001,5.996,0.001C335.89,70.324,337.473,71.335,339.056,72.347z"/>
<path fill-rule="evenodd" clip-rule="evenodd" fill="#CD1414" d="M32.328,62.116c-5.719-1.031-11.498-0.771-17.263-0.803
	c-1.343-0.008-2.905-0.256-2.06,1.993c-0.355,0.024-0.711,0.049-1.065,0.073c-1.099,0.78-0.886,1.422,0.206,1.972
	c0.222,0.201,0.39,0.439,0.504,0.716c-2.67,0.039-3.683,1.305-3.632,4.042c0.144,7.769,0.163,15.544-0.001,23.312
	c-0.079,3.784,1.293,4.013,3.907,2.056c0.828-0.621,1.562-1.481,2.497-0.562c1.107,1.088,0.059,2.032-0.453,3.055
	c-0.926,1.853-3.096,3.129-2.665,5.618c0-0.001-0.081-0.128-0.082-0.128c-0.989-0.101-1.782,0.129-2.058,1.225
	c-0.387,0.372-0.773,0.744-1.159,1.116c-1.482-0.056-2.104-0.813-1.86-2.278c1.124-0.729,1.863-1.69,1.875-3.093
	c-1.663-5.698-0.602-11.542-0.941-17.312C7.729,77.2,8.957,71.221,7.371,65.354c-0.01-0.633-0.021-1.267-0.031-1.899
	c0.75-0.053,1.387-0.291,1.703-1.048L8.98,62.058C9.238,62.029,9.494,62,9.751,61.972c-0.194-0.281-0.39-0.563-0.585-0.845
	c-0.563-0.573-1.127-1.147-1.689-1.721c0.188-0.401,0.374-0.802,0.561-1.203c5.68,0.094,11.359,0.187,17.039,0.28
	c0.527,0.079,1.055,0.158,1.582,0.236c1.5,0.532,3,1.063,4.501,1.595c0.308,0.352,0.614,0.703,0.922,1.055l0.017-0.055
	C32.338,61.534,32.415,61.802,32.328,62.116z"/>
<path fill-rule="evenodd" clip-rule="evenodd" fill="#F80202" d="M67.237,93.449c0.645,11.358-4.62,16.162-16.173,14.754
	c-0.152-1.766,0.142-3.438,1.033-4.986c4.521,0.838,6.424-1.049,5.93-5.59c-0.344-3.152,1.199-4.514,4.321-4.293
	C63.973,93.448,65.607,93.415,67.237,93.449z"/>
<path fill-rule="evenodd" clip-rule="evenodd" fill="#F90707" d="M321.062,91.245c-0.041-1.2-0.653-1.844-1.86-1.905
	c-1.131-1.274-2.262-2.549-3.393-3.822c0.405-2.641,2.473-2.075,4.236-2.299c3.035-0.385,6.336,1.822,8.719,0.703
	c3.895-1.827,7.705-1.481,11.614-1.67c1.299,4.64,0.009,7.022-5.246,6.242c-1.626-0.241-3.345,0.158-4.974-0.076
	c-3.99-0.574-5.57,1.013-4.874,4.949C323.267,93.873,322.51,91.872,321.062,91.245z"/>
<path fill-rule="evenodd" clip-rule="evenodd" fill="#171717" d="M64.77,109.319c1.757-2.129,3.123-4.028,5.733-0.402
	c1.821,2.531,5.232,3.747,8.46,3.193c6.038-1.036,12.125-0.104,18.145-0.879l-0.277,0.119l0.059,0.296
	c0.05,0.558,0.101,1.115,0.15,1.673c-1.318,1.167-2.883,1.291-4.578,1.327c-5.115,0.107-10.214-0.317-15.344,0.731
	c-4.51,0.922-8.23-1.743-11.826-4.145C65.117,110.596,64.943,109.957,64.77,109.319z"/>
<path fill-rule="evenodd" clip-rule="evenodd" fill="#F60A0A" d="M309.048,69.523c0.237,3.215,0.621,6.435-0.263,9.619
	c-3.877-0.498-7.733,1.656-11.619,0.095c0.056-1.002,0.111-2.003,0.168-3.004c1.719-1.729-0.508-3.231-0.282-4.875
	C300.893,69.714,304.847,68.813,309.048,69.523z"/>
<path fill-rule="evenodd" clip-rule="evenodd" fill="#AC1E1E" d="M60.332,70.278C48.729,66.669,42.01,71.536,41.994,83.57
	c-0.004,3.129,0.023,6.258,0.037,9.384c-0.623,0.131-1.248,0.265-1.873,0.397c-0.214-7.444-1.407-14.969,1.83-22.127
	c1.543-1.277,3.084-2.555,4.627-3.832l0.082-0.025c5.033-0.584,10.27-2.699,14.607,1.943c-0.158,0.291-0.226,0.602-0.205,0.933
	C60.844,70.256,60.588,70.268,60.332,70.278z"/>
<path fill-rule="evenodd" clip-rule="evenodd" fill="#1E1E1E" d="M60.13,112.318c-0.253,0.56-0.353,1.411-0.782,1.637
	c-6.613,3.48-16.847,1.57-22.255-4.076c-0.067-0.643-0.134-1.285-0.2-1.928c0.773-0.919,1.074-3.724,2.845-1.677
	c5.292,6.121,12.157,6.279,19.303,5.879C59.403,112.208,59.767,112.263,60.13,112.318z"/>
<path fill-rule="evenodd" clip-rule="evenodd" fill="#BE2C2C" d="M222.121,103.357c-0.028,1.011-0.058,2.021-0.086,3.03
	c0,0.428,0,0.855,0,1.284c-0.666,0.188-1.332,0.376-1.998,0.564c0,0-0.329-0.011-0.33-0.01c-0.211-0.955-0.42-1.91-0.629-2.865
	c0.807-0.68,1.276-1.357-0.006-2.031c0.075-14.313,0.151-28.628,0.227-42.942c0.583,0.082,1.166,0.164,1.749,0.247
	c0.007,2.241,0.013,4.482,0.02,6.725c0.003,0.658,0.005,1.317,0.008,1.976c0.108,3.022-0.731,6.142,0.929,9.004
	c0.002,0.845,0.163,1.61,1.003,2.044l-0.009,0.002c-0.023,0.287-0.064,0.571-0.126,0.854c-1.979,0.227-1.904,1.634-1.769,3.075
	c0.006,5.361,0.012,10.724,0.016,16.085C221.453,101.384,221.787,102.371,222.121,103.357z"/>
<path fill-rule="evenodd" clip-rule="evenodd" fill="#A72727" d="M275.898,71.478c-2.99-0.194-5.385-2.221-8.537-2.328
	c-8.946-0.307-15.588,2.447-14.441,13.723c-3.555-0.131-1.896-2.867-1.973-4.41c-0.156-3.198,0.635-6.248,3.114-8.585
	c1.015-0.676,2.028-1.351,3.044-2.026c0.54-0.343,1.479-0.392,1.065-1.439l0.115,0.15c3.384,0.062,6.787-0.078,10.146,0.243
	C271.582,67.105,274.487,68.204,275.898,71.478z"/>
<path fill-rule="evenodd" clip-rule="evenodd" fill="#F40E0E" d="M52.098,103.217c-0.892,1.549-1.186,3.221-1.033,4.986
	c-2.841,0.224-5.147-0.805-6.967-2.975c-2.242-7.617-0.765-9.545,7.629-9.953c0.189,1.887,0.38,3.772,0.568,5.658
	C52.229,101.694,52.163,102.456,52.098,103.217z"/>
<path fill-rule="evenodd" clip-rule="evenodd" fill="#A72727" d="M95.561,71.313c-3.225-0.446-6.027-2.242-9.516-2.175
	c-10.306,0.197-13.143,2.865-13.098,13.271c-2.057,0.724-2.104-0.66-2.248-2.071c-0.794-7.785,3.553-13.147,11.418-13.82
	c3.813-0.325,7.595,0.011,11.11,1.774c0.276,0.232,0.552,0.464,0.827,0.696C94.557,69.763,95.059,70.538,95.561,71.313z"/>
<path fill-rule="evenodd" clip-rule="evenodd" fill="#2A2A2A" d="M117.029,111.806c3.313-1.99,6.547-2.098,10.156-0.406
	c3.402,1.595,7.192,0.835,10.836,0.559c0.67,0.131,1.34,0.261,2.009,0.392c-4.312,4.102-9.518,3.337-14.727,2.784
	c-2.733-0.29-5.091-2.669-8.081-1.413C117.158,113.083,117.094,112.444,117.029,111.806z"/>
<path fill-rule="evenodd" clip-rule="evenodd" fill="#BE2C2C" d="M60.332,70.278c0.256-0.011,0.512-0.022,0.769-0.035
	c0.655,0.002,1.312,0.003,1.966,0.004c0.327,0.045,0.653,0.09,0.98,0.135c0.436,0.778,0.871,1.557,1.307,2.335
	c-2.437,4.364-4.48,8.878-5.284,13.864c-0.052,0.438-0.103,0.875-0.154,1.313c-0.539,0.027-1.078,0.054-1.617,0.08
	c-1.698-2.004,0.929-4.13-0.146-6.629c-0.845,1.215-1.458,2.098-2.072,2.98c-1.946-0.058-3.745-0.32-3.946-2.822
	c5.69,0.365,1.975-4.265,3.299-6.218c1.681,0.112,1.223,2.251,2.547,2.721C60.953,76.077,61.104,73.318,60.332,70.278z"/>
<path fill-rule="evenodd" clip-rule="evenodd" fill="#171717" d="M183.116,110.188c1.935-1.968,3.626-4.547,5.748,0.112
	c0.861,1.891,3.577,1.298,5.552,1.306c2.828,0.01,5.655-0.037,8.483-0.061c0.233,0.359,0.468,0.719,0.702,1.077
	C198.052,116.652,186.28,115.253,183.116,110.188z"/>
<path fill-rule="evenodd" clip-rule="evenodd" fill="#AF0808" d="M266.137,75.404c2.727,1.395,1.568,4.063,2.031,6.196
	c-0.003,0.488-0.006,0.979-0.008,1.47c-1.617,3.725-5.51,4.161-8.567,5.26c-5.29,1.9-7.216,5.153-6.611,10.516
	c0.257,2.277-0.021,4.615-0.055,6.926c-0.338-0.129-0.676-0.258-1.014-0.387c-0.278-0.364-0.556-0.729-0.833-1.094
	c-0.094-0.654-0.188-1.308-0.281-1.962c-0.033-2.984-0.067-5.969-0.102-8.952c-0.048-3.646,2.529-5.101,5.32-6.377
	c2.271,0.324,3.752-0.963,5.107-2.504C267.144,83.862,266.014,79.287,266.137,75.404z"/>
<path fill-rule="evenodd" clip-rule="evenodd" fill="#1E1E1E" d="M316.734,105.815l0.225,0.01c-4.316,1.137-1.881,2.585-0.095,3.76
	c4.312,2.834,9.257,2.772,14.15,2.865c0.004,0.322,0.087,0.623,0.251,0.901c-0.401,0.373-0.803,0.745-1.203,1.118
	c-0.758-0.189-0.9,0.322-1.004,0.879c-5.994,0.755-11.646-0.351-16.993-3.116c-0.314-0.375-0.628-0.75-0.942-1.125
	c0.338-1.191,0.677-2.383,1.016-3.574c0.264-0.274,0.527-0.548,0.791-0.821C314.496,107.68,315.922,108.045,316.734,105.815z"/>
<path fill-rule="evenodd" clip-rule="evenodd" fill="#F20808" d="M338.498,103.247c0,0-0.134,0.087-0.137,0.089
	c-1.128-0.055-2.252-0.111-3.375-0.168c-0.942-0.643-1.885-1.286-2.828-1.93c-2.676-7.119-1.968-8.172,5.428-8.016
	c0.991,0.021,1.979,0.152,2.969,0.233c-0.056,2.309-0.111,4.617-0.167,6.926C339.344,101.064,338.762,102.051,338.498,103.247z"/>
<path fill-rule="evenodd" clip-rule="evenodd" fill="#AC1E1E" d="M309.048,69.523c-4.201-0.71-8.155,0.19-11.996,1.835
	c-2.801-0.079-4.845-3.231-7.978-1.964c-0.843-0.054-1.596,0.111-2.097,0.876c-2.479,0.23-2.919,1.975-2.97,4.007
	c-1.2,0.879-0.91,2.133-0.839,3.332c-0.069,1.019-0.139,2.038-0.208,3.057c-0.484-0.032-0.971-0.064-1.456-0.097
	c0.562-4.554-0.698-9.605,3.591-13.141c0.671-0.289,1.342-0.579,2.014-0.868c3.113-0.275,6.107,0.006,8.765,1.871
	c0.684,1.186,1.298,1.492,1.759-0.139c3.45-2.082,7.151-1.017,10.757-0.759C309.355,67.604,309.256,68.705,309.048,69.523z"/>
<path fill-rule="evenodd" clip-rule="evenodd" fill="#AF0808" d="M85.973,75.479c3.24,4.711,3.016,9.198-1.835,10.537
	c-10.939,3.019-12.285,10.529-11.286,19.831c-0.279-0.105-0.565-0.182-0.859-0.229c-0.411-1.098-0.822-2.195-1.234-3.293
	c-0.035-2.981-0.07-5.964-0.105-8.946c0.006-3.624,2.654-5.044,5.354-6.421c1.264-0.749,3.132-0.063,4.022-1.695
	C85.032,83.837,86.909,80.513,85.973,75.479z"/>
<path fill-rule="evenodd" clip-rule="evenodd" fill="#F0E5E5" d="M140.03,112.35c-0.669-0.131-1.339-0.261-2.009-0.392
	c1.566-2.172,4.945-1.947,6.125-4.631c0.302-0.301,0.605-0.602,0.908-0.903c1.372-0.202,1.684-1.095,2.016-2.366
	c1.364-5.234,1.238-10.414-0.051-15.615c0.728-0.025,1.455-0.052,2.182-0.077C153.941,97.902,150.584,110.515,140.03,112.35z"/>
<path fill-rule="evenodd" clip-rule="evenodd" fill="#171717" d="M117.029,111.806c0.064,0.639,0.129,1.277,0.193,1.915
	c-5.764,1.45-11.465,1.757-17-0.94c-0.404-0.494-0.809-0.988-1.213-1.482c0.721-0.854,2.023-1.2,2.198-2.527
	C106.146,111.535,111.611,111.546,117.029,111.806z"/>
<path fill-rule="evenodd" clip-rule="evenodd" fill="#A72727" d="M121.006,84.555c-2.832-4.25-1.348-8.726-0.689-13.159
	c6.121-6.306,15.882-6.804,22.049-1.125c-4.111,0.269-7.717-2.489-12.178-1.312c-7.512,1.984-9.115,3.437-9.164,11.098
	C121.014,81.556,121.012,83.056,121.006,84.555z"/>
<path fill-rule="evenodd" clip-rule="evenodd" fill="#BE2C2C" d="M22.07,101.241c-0.021-0.234-0.024-0.469-0.008-0.703
	c0.295-0.142,0.602-0.257,0.918-0.346c4.767,2.149,8.166-1.52,12.115-2.849l0.422,0.067l0.428-0.025
	c-0.037,1.004-0.072,2.009-0.108,3.014c-6.196,1.826-12.542,3.295-17.78,7.42c-2.637,0.127-5.273,0.254-7.91,0.381
	c0.615-0.673,1.23-1.347,1.846-2.02C15.44,104.716,19.746,105.001,22.07,101.241z"/>
<path fill-rule="evenodd" clip-rule="evenodd" fill="#AF0808" d="M340.378,82.252c-3.909,0.188-7.72-0.157-11.614,1.67
	c-2.383,1.119-5.684-1.088-8.719-0.703c-1.764,0.224-3.831-0.342-4.234,2.3c-0.746-0.488-1.492-0.977-2.24-1.466
	c-0.067-0.555-0.135-1.108-0.203-1.663c0.264-0.374,0.525-0.747,0.789-1.12c1.947-0.196,3.896-0.392,5.845-0.588
	c0.372-0.023,0.745-0.047,1.118-0.071c1.225-0.003,2.449-0.006,3.675-0.009c4.456,1.523,8.778-1.251,13.213-0.41
	c0.917,0.145,1.833,0.29,2.749,0.435C340.631,81.168,340.504,81.71,340.378,82.252z"/>
<path fill-rule="evenodd" clip-rule="evenodd" fill="#929292" d="M203.602,112.622c-0.234-0.358-0.469-0.718-0.702-1.077
	c2.465-1.251,3.326-3.155,3.253-5.993c-0.199-7.723-0.131-15.456-0.012-23.183c0.022-1.479-1.132-3.898,1.961-4.028
	c-0.036,9.229-0.108,18.457-0.089,27.686C208.02,109.286,207.306,111.916,203.602,112.622z"/>
<path fill-rule="evenodd" clip-rule="evenodd" fill="#F40E0E" d="M60.069,86.581c0.804-4.986,2.848-9.5,5.284-13.864
	c0.242,0.139,0.501,0.227,0.777,0.266c1.531,4.318,1.277,8.81,1.281,13.276c-0.545,0.964-2.283,0.541-2.368,2.038
	c-0.664,0.064-1.328,0.129-1.993,0.192C62.563,87.065,61.63,86.331,60.069,86.581z"/>
<path fill-rule="evenodd" clip-rule="evenodd" fill="#838383" d="M368.07,119.066c4.02-1.076,2.688-4.551,3.049-7.142
	c0.317-2.286,0.23-4.59,2.455-6.052c0.729-0.479,1.561-0.841,2.289-0.292c0.724,0.545,0.795,1.538,0.281,2.231
	c-2.098,2.837-2.009,6.127-2.369,9.416c-0.6,5.479-1.937,5.816-6.726,2.113C367.391,119.25,367.73,119.158,368.07,119.066z"/>
<path fill-rule="evenodd" clip-rule="evenodd" fill="#F60A0A" d="M18.057,107.819c5.238-4.125,11.584-5.594,17.78-7.42
	c0.381,1.849-0.928,3.197-1.417,4.789c-0.362,0.018-0.518,0.205-0.465,0.562C28.957,108.75,23.43,107.693,18.057,107.819z"/>
<path fill-rule="evenodd" clip-rule="evenodd" fill="#F6F6F6" d="M361.06,105.813c0,0-0.024,0.098-0.024,0.097
	c1.121-1.835,0.825-4.494,3.244-5.573c3.721,3.289,8.5,0.93,13.429,2.656c-2.913,0.276-5.034,0.765-7.11,0.618
	c-5.473-0.387-6.203,2.561-5.61,7.027c0.218,1.638,0.714,3.589-0.962,5.497c-0.627-2.573-1.176-4.828-1.724-7.077
	C363.66,107.303,361.785,106.778,361.06,105.813z"/>
<path fill-rule="evenodd" clip-rule="evenodd" fill="#CD1414" d="M308.993,83.363c-9.562-0.076-9.556-0.076-9.921,10.092
	c-0.063,1.754,0.372,3.81-1.885,4.594c-1.504,0.522-2.048-0.506-2.225-1.809c1.857-0.994,2.133-2.664,2.092-4.568
	c-0.066-3.129-0.008-6.26-0.001-9.391c3.932-1.184,8.028-0.27,12-0.94C309.033,82.015,309.014,82.689,308.993,83.363z"/>
<path fill-rule="evenodd" clip-rule="evenodd" fill="#F0E5E5" d="M101.346,75.024c1.947,0.392,1.377,1.962,1.335,3.127
	c-0.121,3.402,0.104,6.741,1.204,9.988c-2.654,4.907-0.492,10.19-1.192,15.249C99.697,94.055,101.396,84.498,101.346,75.024z"/>
<path fill-rule="evenodd" clip-rule="evenodd" fill="#CD1414" d="M51.727,95.275c-8.394,0.408-9.871,2.336-7.629,9.953
	c-1.552-0.396-1.834-2.075-2.943-2.918c-0.253-0.543-0.506-1.087-0.76-1.63c0.333-1.712-0.891-3.431,0.021-5.14
	c2.991-1.385,7.094-0.738,8.662-4.73c0.479-0.16,0.957-0.321,1.436-0.482c0.08,1.003,0.49,1.753,1.539,2.015
	C51.944,93.32,51.836,94.298,51.727,95.275z"/>
<path fill-rule="evenodd" clip-rule="evenodd" fill="#BEBEBE" d="M359.014,117.344c0.844,0.678,0.851,1.812-0.141,1.703
	c-2.166-0.239-4.384-1.281-4.417-3.822c-0.048-3.687-1.505-5.105-5.136-4.36c-0.59,0.121-1.273-0.205-1.915-0.324
	c-0.423-1.392-0.423-2.759,0.233-4.089c1.722-1.73,5.102-0.371,6.175-3.312l0.359,0.295c-1.776,4.235,0.072,7.581,2.64,10.75
	C357.234,115.455,356.881,117.266,359.014,117.344z"/>
<path fill-rule="evenodd" clip-rule="evenodd" fill="#AC1E1E" d="M52.098,103.217c0.065-0.761,0.131-1.522,0.197-2.283
	c5.559,0.651,3.055-3.687,3.646-6.021c0.403-1.592-0.499-4.453,2.315-3.732c2.982,0.765,7.216-3.038,8.981,2.269
	c-1.63-0.033-3.265,0-4.889-0.114c-3.122-0.221-4.665,1.141-4.321,4.293C58.521,102.168,56.619,104.055,52.098,103.217z"/>
<path fill-rule="evenodd" clip-rule="evenodd" fill="#CD1414" d="M92.031,108.243c-2.113,0.44-4.006,0.259-5.215-1.852
	c3.332-1.41,6.103-3.393,7.208-7.071l0.007-0.007c1.012-0.321,2.021-0.642,3.033-0.962
	C96.967,102.453,98.887,107.581,92.031,108.243z"/>
<path fill-rule="evenodd" clip-rule="evenodd" fill="#F3E9E9" d="M249.061,65.339c-0.843-0.007-1.564,0.229-2.016,1.005
	c-0.325,0.002-0.65,0.003-0.975,0.004c-0.059-0.947-0.117-1.896-0.176-2.843c0.418-0.128,0.836-0.255,1.255-0.383
	c-0.104-0.157-0.207-0.314-0.31-0.473c-0.32,0.282-0.641,0.563-0.96,0.845c-0.913-1.07-1.826-2.141-2.739-3.21
	c1.607-5.042-2.587-2.143-4.061-2.968c-0.336-0.575-0.673-1.151-1.01-1.728c0.381-0.423,0.764-0.845,1.145-1.268
	c3.846,1.437,9.477,0.287,9.826,6.788C249.047,62.521,249.054,63.93,249.061,65.339z"/>
<path fill-rule="evenodd" clip-rule="evenodd" fill="#838383" d="M347.639,106.451c-0.656,1.33-0.656,2.697-0.233,4.089
	c-2.381,2.96-2.381,2.96-1.192,10.053c-4.695-4.236-5.244-7.632-2.078-12.474c0.518-0.792,0.832-1.716,1.239-2.579
	c-0.001-0.001,0.474-0.023,0.474-0.023C346.445,105.828,347.042,106.14,347.639,106.451z"/>
<path fill-rule="evenodd" clip-rule="evenodd" fill="#B43C3C" d="M340.555,93.456c-0.99-0.081-1.978-0.212-2.969-0.233
	c-7.396-0.156-8.104,0.896-5.429,8.016c-0.346,0.375-0.69,0.75-1.034,1.124c-1.402-0.229-3.059,0.702-4.16-0.911
	c2.361-1.905,2.293-4.543,2.18-7.201c-0.075-1.795,0.183-3.083,2.534-3.344C336.58,90.363,339.616,91.074,340.555,93.456z"/>
<path fill-rule="evenodd" clip-rule="evenodd" fill="#AF0808" d="M334.307,69.313c-1.998,0-3.998,0.002-5.996-0.001
	c-8.918-0.01-10.239,0.903-13.137,9.075c-1.328-0.084-1.045-1.374-1.551-2.072c0.457-5.806,4.514-7.984,9.398-9.329
	c2.383,0.44,4.76,0.727,7.08-0.307c0.658,0.156,1.315,0.313,1.974,0.469C332.057,68.654,334.064,68.073,334.307,69.313z"/>
<path fill-rule="evenodd" clip-rule="evenodd" fill="#838383" d="M333.447,120.93c-1.856,0.013-2.234-1.098-2.83-1.789
	c-1.322-1.536,0.925-0.982,1.119-1.689c0.037-0.133,0.234-0.22,0.355-0.331c2.145-1.959,4.733-2.582,7.515-2.2
	c0.4,0.055,1.069,1.797,0.874,1.986C338.329,118.97,334.801,118.478,333.447,120.93z"/>
<path fill-rule="evenodd" clip-rule="evenodd" fill="#838383" d="M239.215,54.321c-0.381,0.423-0.764,0.845-1.145,1.268
	c-6.92-0.452-13.84-0.478-20.758,0.018c-0.191-0.194-0.382-0.389-0.571-0.585c0.456-0.458,0.897-1.299,1.37-1.317
	C225.156,53.431,232.232,52.421,239.215,54.321z"/>
<path fill-rule="evenodd" clip-rule="evenodd" fill="#F39C9C" d="M131.482,107.238c0.039,0.293-0.002,0.574-0.123,0.844
	c-3.197,1.2-5.938,1.146-7.299-2.672c1.299-2.175-0.357-6.222,4.067-6.416c0.076,0.455,0.152,0.911,0.229,1.367
	C127.283,103.615,130.217,105.048,131.482,107.238z"/>
<path fill-rule="evenodd" clip-rule="evenodd" fill="#F00C0C" d="M128.128,98.994c-4.425,0.194-2.769,4.241-4.067,6.416
	c-1.995,0.197-2.682-1.072-3.039-2.714c0.012-0.83,0.162-1.683,0.014-2.48c-0.499-2.693,0.805-3.898,3.25-4.553
	C127.369,94.837,127.309,97.36,128.128,98.994z"/>
<path fill-rule="evenodd" clip-rule="evenodd" fill="#929292" d="M4.061,55.86c1.115-1.523,2.34-2.693,4.491-2.615
	c5.816,0.211,11.638,0.278,17.458,0.401c0.344,0.728,0.688,1.455,1.032,2.184c-6.996-0.81-14.004-0.537-21.012-0.22
	C5.374,55.693,4.717,55.777,4.061,55.86z"/>
<path fill-rule="evenodd" clip-rule="evenodd" fill="#F0E5E5" d="M66.131,72.982c-0.276-0.039-0.535-0.127-0.777-0.266
	c-0.436-0.778-0.871-1.557-1.307-2.335c2.672-2.925-2.43-3.779-1.68-6.407c3.422-0.02,5.65,5.107,9.607,2.29l0.158,0.136
	C72.33,70.6,68.305,70.945,66.131,72.982z"/>
<path fill-rule="evenodd" clip-rule="evenodd" fill="#BEBEBE" d="M249.061,65.339c-0.007-1.409-0.014-2.818-0.02-4.229
	c2.132,2.551,4.561,4.077,7.945,2.289c0.23,0.663,0.461,1.327,0.691,1.991c0.203,0.391,0.406,0.78,0.609,1.171
	c-0.001,0.001-0.116-0.149-0.116-0.149c-0.818,0.137-1.017,0.733-1.065,1.439c-1.016,0.676-2.029,1.351-3.044,2.026
	c-0.892-0.96-1.333-2.703-3.253-1.861c-0.21,0.075-0.429,0.117-0.653,0.129C249.117,67.473,249.309,66.319,249.061,65.339z"/>
<path fill-rule="evenodd" clip-rule="evenodd" fill="#F3E9E9" d="M92.031,108.243c6.855-0.662,4.936-5.79,5.033-9.892
	c0.342,0.001,0.684,0.001,1.027,0.002c2.293,3.097-0.664,7.765,3.116,10.417c-0.175,1.327-1.478,1.674-2.198,2.527
	c-0.707,0.116-1.414,0.232-2.121,0.349l-0.059-0.296l0.277-0.119C96.713,108.03,93.036,110.407,92.031,108.243z"/>
<path fill-rule="evenodd" clip-rule="evenodd" fill="#B43C3C" d="M128.128,98.994c-0.819-1.634-0.759-4.157-3.843-3.331
	c-2.445,0.654-3.749,1.859-3.25,4.553c0.148,0.798-0.002,1.65-0.014,2.48c-0.271-0.139-0.541-0.279-0.813-0.42
	c-1.137-9.702-0.372-10.321,9.858-7.98c-0.153,1.993,1.333,4.041-0.198,5.988c-0.504,0.025-1.008,0.051-1.513,0.076
	C128.28,99.905,128.204,99.449,128.128,98.994z"/>
<path fill-rule="evenodd" clip-rule="evenodd" fill="#AC1E1E" d="M286.047,82.291c-3.334,5.74-1.694,12.057-2.104,18.136
	c-0.441-0.371-0.882-0.74-1.323-1.109c-0.184-0.332-0.367-0.664-0.552-0.996c-0.14-1.005-0.28-2.009-0.42-3.013
	c-0.053-0.626-0.105-1.252-0.158-1.878c0.125-3.382,0.25-6.765,0.375-10.146c1.271-0.095,0.977-1.165,1.195-1.916
	c0.999,0.008,1.999,0.016,2.997,0.023l-0.043-0.039C285.965,81.667,285.976,81.98,286.047,82.291z"/>
<path fill-rule="evenodd" clip-rule="evenodd" fill="#A0A0A0" d="M382.349,111.743c3.049-1.629,5.351-5.021,8.94-2.357
	c1.245,0.924,1.28,3.148,0.236,4.026C388.212,116.201,385.388,113.552,382.349,111.743z M389.44,112.546
	c-0.312,0.136-0.587,0.255-0.862,0.374c0.124,0.101,0.268,0.303,0.369,0.283c0.277-0.052,0.537-0.197,0.805-0.306
	C389.645,112.777,389.539,112.656,389.44,112.546z"/>
<path fill-rule="evenodd" clip-rule="evenodd" fill="#717171" d="M392.031,117.524c0.053,0.687,0.105,1.374,0.158,2.062
	c-3.677,3.135-8.479,3.132-13.252-0.555C383.947,119.938,387.948,118.484,392.031,117.524z"/>
<path fill-rule="evenodd" clip-rule="evenodd" fill="#B43C3C" d="M235.488,88.246c2.346,1.229,1.453,3.463,1.391,5.236
	c-0.165,4.668,0.867,9.399-0.631,14.002c-0.354-0.166-0.706-0.329-1.059-0.493C235.289,100.743,235.389,94.494,235.488,88.246z"/>
<path fill-rule="evenodd" clip-rule="evenodd" fill="#A0A0A0" d="M40.042,69.281c-2.231,0.428-2.202-0.93-2.368-2.596
	c-0.258-2.563-0.899-5.104-3.619-6.354l0.019,0.025c0.22-0.943-0.302-1.484-1.036-1.91c-0.039-0.286-0.117-0.563-0.234-0.827
	c0.256-0.276,0.512-0.554,0.769-0.83c3.058,1.378,4.372,4.217,5.868,6.925c0.473,0.853,0.245,2.539,2.085,2.022
	c0.239,0.279,0.478,0.553,0.716,0.827C41.508,67.47,40.775,68.376,40.042,69.281z"/>
<path fill-rule="evenodd" clip-rule="evenodd" fill="#838383" d="M359.014,117.344c-2.133-0.078-1.779-1.889-2.201-3.159
	c-0.283-3.652,0.021-7.007,4.247-8.371c0.726,0.965,2.601,1.489,1.242,3.245C359.516,111.146,358.814,114.066,359.014,117.344z"/>
<path fill-rule="evenodd" clip-rule="evenodd" fill="#AF0808" d="M114.463,64.338c-2.25,0.016-4.5,0.084-6.748,0.031
	c-2.719-0.063-3.793,1.295-3.589,3.885c-0.593,0.054-1.187,0.106-1.778,0.159c-0.154-0.363-0.31-0.727-0.464-1.089
	c0.972-1.633-1.468-5.345,1.911-5.038C107.316,62.606,111.854,59.18,114.463,64.338z"/>
<path fill-rule="evenodd" clip-rule="evenodd" fill="#F3E9E9" d="M257.678,65.39c-0.23-0.664-0.461-1.328-0.691-1.991
	c5.42-2.017,10.945-0.649,16.499-0.199C268.517,65.904,262.637,62.737,257.678,65.39z"/>
<path fill-rule="evenodd" clip-rule="evenodd" fill="#BEBEBE" d="M310.969,64.636c-5.307-0.727-10.578-0.619-15.803,0.652
	c-0.006-0.618-0.012-1.236-0.016-1.854c5.717-1.427,11.424-2.641,16.876,0.903C311.674,64.437,311.322,64.536,310.969,64.636z"/>
<path fill-rule="evenodd" clip-rule="evenodd" fill="#CD1414" d="M246.811,73.423c-3.18-0.229-4.727,2.347-6.695,4.067
	c-0.988,0.862-1.712,1.885-3.184,1.723c0.377-0.96,0.754-1.921,1.131-2.882c0.8-0.44,1.467-0.947,1.002-2.016l-0.039,0.044
	c0.803,0.105,1.151-0.244,1.047-1.047l-0.027,0.056c3.18,0.263,3.891-3.806,6.86-3.913
	C247.159,70.785,247.354,72.112,246.811,73.423z"/>
<path fill-rule="evenodd" clip-rule="evenodd" fill="#717171" d="M364.279,100.337c-2.419,1.079-2.123,3.738-3.244,5.573
	c-3.014-4.122-2.517-6.323,1.854-9.466c0.652-0.469,0.685-0.709,1.293-0.065C365.453,97.722,364.885,99.005,364.279,100.337z"/>
<path fill-rule="evenodd" clip-rule="evenodd" fill="#929292" d="M209.104,55.343c-4.853,0.326-9.758-0.761-14.581,0.623
	c-1.068,0.307-1.307-0.639-1.311-1.528c3.636-1.394,7.437-1.169,11.22-1.172C206.324,53.264,208.088,53.43,209.104,55.343z"/>
<path fill-rule="evenodd" clip-rule="evenodd" fill="#F3E9E9" d="M334.307,69.313c-0.242-1.239-2.25-0.658-2.231-2.165
	c-0.036-1.227-0.163-2.501,1.496-2.836c0.876,0.63,1.749,1.261,2.621,1.891c-0.529,0.348-1.122,0.889-0.657,1.436
	c0.748,0.879,1.301,0.06,1.797-0.512c0.916,0.067,1.833,0.135,2.75,0.201l-0.009-0.008c0.071,0.948,0.143,1.896,0.214,2.846
	c-0.943,0.426-1.129,1.279-1.231,2.182C337.473,71.335,335.89,70.324,334.307,69.313z"/>
<path fill-rule="evenodd" clip-rule="evenodd" fill="#A0A0A0" d="M141.041,63.424c5.293,1.539,7.41,5.72,8.765,10.539
	c-0.853,0.05-1.708,0.097-2.563,0.146c-0.008-0.34-0.014-0.68-0.02-1.021c-0.173-0.564-0.345-1.129-0.518-1.693
	c-0.919-3.039-3.336-4.737-5.756-6.433C140.98,64.447,141.01,63.936,141.041,63.424z"/>
<path fill-rule="evenodd" clip-rule="evenodd" fill="#A0A0A0" d="M115.994,57.472c1.428,0.239,2.58,1.198,2.741,2.435
	c0.445,3.424,2.591,3.664,5.258,3.289c0.049,0.483,0.099,0.967,0.147,1.45c-4.689,2.487-5.883,1.964-7.059-2.998
	c-0.225-0.948-0.697-1.837-1.055-2.755C116.016,58.419,116.004,57.945,115.994,57.472z"/>
<path fill-rule="evenodd" clip-rule="evenodd" fill="#F0E5E5" d="M294.85,107.765c-0.261-0.197-0.555-0.315-0.879-0.354
	c-1.389-3.624-4.647-1.417-6.938-2.227c0.008-0.584,0.015-1.168,0.022-1.752c3.438,0.653,6.802-2.168,10.267-0.216
	C297.35,105.196,297.337,107.152,294.85,107.765z"/>
<path fill-rule="evenodd" clip-rule="evenodd" fill="#AF0808" d="M287.032,105.184c2.291,0.81,5.55-1.397,6.938,2.227
	c-1.944-0.012-3.905,0.127-5.83-0.071c-3.221-0.333-4.521,1.017-4.127,4.158c-1.664-1.393-2.684-3.411-1.91-5.258
	C282.943,104.232,285.42,105.884,287.032,105.184z"/>
<path fill-rule="evenodd" clip-rule="evenodd" fill="#EB8383" d="M313.623,76.314c0.506,0.698,0.223,1.988,1.551,2.072
	c2.951-0.019,5.901-0.037,8.852-0.056c0.256,0.757,0.512,1.514,0.769,2.271c-1.226,0.003-2.45,0.006-3.675,0.009
	c-0.373,0.023-0.746,0.047-1.118,0.071c-1.948,0.196-3.897,0.392-5.847,0.589c-0.144-0.237-0.322-0.453-0.536-0.645
	C313.673,79.189,312.277,77.751,313.623,76.314z"/>
<path fill-rule="evenodd" clip-rule="evenodd" fill="#F0E5E5" d="M48.023,62.367c4.178,0.556,8.797-1.545,12.838,1.897
	c-4.576,0-8.773,0-12.969,0.001C47.938,63.633,47.98,63,48.023,62.367z"/>
<path fill-rule="evenodd" clip-rule="evenodd" fill="#EB8383" d="M309.054,81.341c-3.972,0.671-8.068-0.243-12,0.941
	c0.037-1.015,0.074-2.03,0.112-3.045c3.886,1.562,7.742-0.593,11.619-0.095C308.875,79.876,308.964,80.608,309.054,81.341z"/>
<path fill-rule="evenodd" clip-rule="evenodd" fill="#929292" d="M124.141,64.646c-0.049-0.483-0.099-0.967-0.147-1.45
	c5.703-1.447,11.388-1.514,17.048,0.229c-0.031,0.512-0.061,1.023-0.092,1.538c-5.164-1.449-10.361-2.168-15.658-0.736
	c0.002,0-0.007,0.007-0.007,0.007C124.902,64.37,124.521,64.508,124.141,64.646z"/>
<path fill-rule="evenodd" clip-rule="evenodd" fill="#A0A0A0" d="M311.123,111.107c0.314,0.375,0.628,0.75,0.942,1.125
	c-2.185,2.741-4.536,5.275-7.968,6.481c-0.328-0.738-0.657-1.476-0.985-2.213C306.705,116.073,308.457,112.912,311.123,111.107z"/>
<path fill-rule="evenodd" clip-rule="evenodd" fill="#CD1414" d="M102.692,103.389c0.7-5.059-1.462-10.342,1.192-15.249
	c0.354,0.533,1.105,1.168,1,1.589c-1.226,4.896-0.078,9.933-0.955,14.835c-0.295-0.053-0.59-0.1-0.885-0.14
	C102.927,104.079,102.81,103.733,102.692,103.389z"/>
<path fill-rule="evenodd" clip-rule="evenodd" fill="#F3E9E9" d="M295.15,63.434c0.004,0.618,0.01,1.236,0.016,1.854
	c-2.832-0.508-5.967-2.927-8.057,1.272c-0.672,0.289-1.343,0.579-2.014,0.868c-0.021-0.795-0.043-1.589-0.064-2.38
	c0.3-0.867,0.6-1.737,0.899-2.607C289.033,62.498,292.236,61.626,295.15,63.434z"/>
<path fill-rule="evenodd" clip-rule="evenodd" fill="#BE2C2C" d="M276.054,98.803c0.113-0.3,0.331-0.45,0.653-0.451
	c0.506,0.309,1.013,0.618,1.52,0.928c-0.027,1.63-0.146,3.265-0.063,4.889c0.171,3.316-1.133,4.597-4.4,3.424
	C274.256,104.591,276.697,102.099,276.054,98.803z"/>
<path fill-rule="evenodd" clip-rule="evenodd" fill="#717171" d="M99.809,60.417c-1.179,2.509,0.635,8.518-5.76,4.926
	c0.012-0.306,0.021-0.61,0.027-0.916c1.619-1.617,3.238-3.234,4.857-4.85C99.226,59.858,99.518,60.138,99.809,60.417z"/>
<path fill-rule="evenodd" clip-rule="evenodd" fill="#717171" d="M344.043,99.347c0-7.102,0-14.203,0-21.304
	c0.309-0.006,0.618-0.011,0.927-0.017c0,7.078,0,14.157,0,21.235C344.662,99.307,344.354,99.335,344.043,99.347z"/>
<path fill-rule="evenodd" clip-rule="evenodd" fill="#F0E5E5" d="M147.242,74.106c0.855-0.047,1.711-0.094,2.563-0.144
	c0.071,2.821,1.159,5.725-0.669,8.396c-0.457-0.755-1.145-0.965-1.977-0.841C147.188,79.047,147.215,76.577,147.242,74.106z"/>
<path fill-rule="evenodd" clip-rule="evenodd" fill="#929292" d="M91.051,64.385c-5.007-1.867-10.131-0.615-15.25-0.601
	c5.201-2.534,10.66-1.592,16.061-1.329C91.971,63.257,91.972,64.015,91.051,64.385z"/>
<path fill-rule="evenodd" clip-rule="evenodd" fill="#F35353" d="M268.16,83.07c0.002-0.491,0.005-0.981,0.008-1.47
	c3.176-0.132,6.35-0.266,9.524-0.399c0.412,1.378,0.858,2.755,0.211,4.186C275.413,81.431,271.38,83.96,268.16,83.07z"/>
<path fill-rule="evenodd" clip-rule="evenodd" fill="#BEBEBE" d="M344.043,99.347c0.311-0.012,0.619-0.04,0.927-0.085
	c0.126,1.603,0.252,3.205,0.376,4.811c-0.15,0.143-0.298,0.283-0.443,0.425c-2.064-0.772-4.065-1.868-6.402-1.251
	c0.262-1.195,0.844-2.182,1.888-2.864C341.606,100.037,342.824,99.691,344.043,99.347z"/>
<path fill-rule="evenodd" clip-rule="evenodd" fill="#EB8383" d="M94.024,99.32c-1.105,3.679-3.876,5.661-7.208,7.071l-0.418,0.069
	l-0.379-0.188C88.516,103.759,90.005,100.083,94.024,99.32z"/>
<path fill-rule="evenodd" clip-rule="evenodd" fill="#F40E0E" d="M222.035,107.672c0-0.429,0-0.856,0-1.284
	c3.17-0.025,6.342-0.052,9.512-0.078C228.806,109.757,225.23,107.386,222.035,107.672z"/>
<path fill-rule="evenodd" clip-rule="evenodd" fill="#EB8383" d="M246.905,69.455c-2.97,0.107-3.681,4.176-6.86,3.913
	c1.102-3.118,3.229-5.357,6.025-7.021c0.324-0.001,0.649-0.002,0.975-0.004C246.998,67.381,246.951,68.418,246.905,69.455z"/>
<path fill-rule="evenodd" clip-rule="evenodd" fill="#A0A0A0" d="M331.146,63.22c-4.082,0.325-8.164,0.65-12.247,0.976
	C322.9,61.419,327.267,62.728,331.146,63.22z"/>
<path fill-rule="evenodd" clip-rule="evenodd" fill="#F3E9E9" d="M109.012,108.03c3.046-0.129,6.092-0.259,9.137-0.389
	C115.223,110.596,112.144,109.922,109.012,108.03z"/>
<path fill-rule="evenodd" clip-rule="evenodd" fill="#A0A0A0" d="M48.023,62.367c-0.043,0.633-0.086,1.266-0.131,1.898
	c-0.847,0.86-1.539,1.781-1.195,3.102l-0.082,0.025c-0.165-0.084-0.338-0.108-0.519-0.073c0.083-0.443,0.382-1.02,0.207-1.303
	c-0.438-0.706-1.087-0.418-1.647-0.017c-0.806,0.188-1.611,0.376-2.416,0.563c-0.238-0.274-0.477-0.548-0.716-0.827
	C42.992,63.262,45.618,63.027,48.023,62.367z"/>
<path fill-rule="evenodd" clip-rule="evenodd" fill="#A0A0A0" d="M147.161,81.52c0.831-0.125,1.519,0.085,1.976,0.84
	c-2.672,2.03-1.179,4.017,0.064,6.006c-0.727,0.025-1.454,0.052-2.182,0.077C145.076,86.094,143.559,83.754,147.161,81.52z"/>
<path fill-rule="evenodd" clip-rule="evenodd" fill="#EB8383" d="M49.078,90.811c-1.568,3.992-5.671,3.346-8.662,4.73
	c-0.086-0.73-0.172-1.461-0.258-2.19c0.625-0.132,1.25-0.266,1.873-0.396C44.379,92.241,46.729,91.526,49.078,90.811z"/>
<path fill-rule="evenodd" clip-rule="evenodd" fill="#F39C9C" d="M56.079,84.325c0.614-0.883,1.228-1.766,2.072-2.98
	c1.075,2.499-1.552,4.625,0.146,6.629c-1.053,0.59-2.086,1.471-3.267,0.227C55.381,86.908,55.73,85.616,56.079,84.325z"/>
<path fill-rule="evenodd" clip-rule="evenodd" fill="#F39C9C" d="M313.57,84.053c0.748,0.489,1.494,0.978,2.24,1.466
	c1.129,1.272,2.26,2.547,3.391,3.821c-0.408,0.466,0.539,2.53-1.316,1.247c-1.538-1.063-2.35-3.194-4.665-3.104
	C313.337,86.34,313.453,85.196,313.57,84.053z"/>
<path fill-rule="evenodd" clip-rule="evenodd" fill="#F0E5E5" d="M42.24,66.563c0.805-0.188,1.61-0.376,2.418-0.563
	c0.48,0.439,0.959,0.879,1.438,1.318c0.181-0.035,0.354-0.011,0.519,0.073c-1.543,1.277-3.084,2.555-4.627,3.832
	c-0.648-0.647-1.297-1.295-1.946-1.942C40.775,68.376,41.508,67.47,42.24,66.563z"/>
<path fill-rule="evenodd" clip-rule="evenodd" fill="#BEBEBE" d="M281.197,66.491c-0.255,1.319-0.646,2.898-2.182,2.788
	c-1.863-0.135-2.669-1.844-3.719-3.722c2.177,0.239,3.873,0.427,5.572,0.615C280.872,66.175,281.197,66.491,281.197,66.491z"/>
<path fill-rule="evenodd" clip-rule="evenodd" fill="#EB8383" d="M276.054,98.803c0.644,3.296-1.798,5.788-2.29,8.789l-0.494,0.003
	c0,0-0.47-0.153-0.469-0.153c0.101-0.579-0.121-0.949-0.705-1.082C272.891,103.565,273.443,100.646,276.054,98.803z"/>
<path fill-rule="evenodd" clip-rule="evenodd" fill="#F3E9E9" d="M261.125,84.496c-1.355,1.541-2.836,2.828-5.107,2.504
	c0.016-1.224,0.029-2.447,0.045-3.671c1.641-0.11,3.281-0.222,4.922-0.333C261.031,83.496,261.078,83.996,261.125,84.496z"/>
<path fill-rule="evenodd" clip-rule="evenodd" fill="#A0A0A0" d="M167.087,62.103c-0.901,3.705-4.528,3.708-7.06,5.201
	C160.709,63.3,164.475,63.485,167.087,62.103z"/>
<path fill-rule="evenodd" clip-rule="evenodd" fill="#717171" d="M115.994,57.472c0.01,0.474,0.021,0.947,0.033,1.421
	c-4.986-0.366-9.973-0.685-14.941,0.22c0.015-0.569,0.029-1.138,0.043-1.706C106.084,57.429,111.039,57.45,115.994,57.472z"/>
<path fill-rule="evenodd" clip-rule="evenodd" fill="#F3E9E9" d="M262.875,108.261c2.598-4.225,5.523,0.87,8.229-0.289
	C268.477,111.371,265.602,107.696,262.875,108.261z"/>
<path fill-rule="evenodd" clip-rule="evenodd" fill="#BEBEBE" d="M340.287,70.165c-0.071-0.949-0.143-1.897-0.214-2.846
	c3.146,1.248,3.599,4.015,3.881,6.879c-0.599,0.002-1.197,0.002-1.797,0.002C342.28,72.51,341.64,71.172,340.287,70.165z"/>
<path fill-rule="evenodd" clip-rule="evenodd" fill="#A0A0A0" d="M27.042,55.829c-0.345-0.728-0.688-1.455-1.032-2.183
	c2.573,0.922,5.703,0.506,7.561,3.146c-0.256,0.272-0.512,0.55-0.768,0.825c-0.273-0.055-0.547-0.048-0.818,0.021
	C30.648,56.184,28.553,56.805,27.042,55.829z"/>
<path fill-rule="evenodd" clip-rule="evenodd" fill="#EB8383" d="M321.062,91.245c1.448,0.627,2.205,2.628,4.223,2.122
	c1.077,1.335,0.209,1.785-0.954,2.103C322.463,94.662,319.771,94.494,321.062,91.245z"/>
<path fill-rule="evenodd" clip-rule="evenodd" fill="#F39C9C" d="M340.756,80.626c-0.916-0.145-1.832-0.29-2.749-0.435
	c0.198-2.23-2.151-1.502-2.967-2.556c1.675-0.811,4.249,0.123,4.958-2.559C341.574,76.746,339.718,78.884,340.756,80.626z"/>
<path fill-rule="evenodd" clip-rule="evenodd" fill="#F3E9E9" d="M330.102,66.679c-2.32,1.033-4.697,0.747-7.08,0.307
	C325.266,64.214,327.652,64.74,330.102,66.679z"/>
<path fill-rule="evenodd" clip-rule="evenodd" fill="#BEBEBE" d="M340.082,67.327c-0.917-0.066-1.834-0.134-2.753-0.2
	c-0.38-0.308-0.759-0.616-1.137-0.925c-0.872-0.63-1.745-1.261-2.621-1.891C336.77,63.093,338.729,64.557,340.082,67.327z"/>
<path fill-rule="evenodd" clip-rule="evenodd" fill="#A0A0A0" d="M155.949,73.462c-0.305-0.02-0.605-0.064-0.904-0.133
	c1.154-2.42,1.574-5.447,4.971-6.014C159.627,70.004,157.71,71.681,155.949,73.462z"/>
<path fill-rule="evenodd" clip-rule="evenodd" fill="#EB8383" d="M228.102,91.32c-0.024-0.656-0.05-1.313-0.074-1.968
	c1.502-0.733,2.318,1.648,3.836,0.846c0.951,1.702-0.555,2.855-0.951,4.256c-0.578-0.455-1.156-0.909-1.733-1.364
	c-0.016-0.28-0.123-0.519-0.322-0.717C228.605,92.022,228.354,91.671,228.102,91.32z"/>
<path fill-rule="evenodd" clip-rule="evenodd" fill="#BEBEBE" d="M285.931,62.441c-0.3,0.87-0.6,1.74-0.899,2.607
	c-1.279,0.478-2.559,0.959-3.836,1.44c0.002,0.002-0.323-0.314-0.326-0.316C281.492,63.485,283.673,62.911,285.931,62.441z"/>
<path fill-rule="evenodd" clip-rule="evenodd" fill="#F3E9E9" d="M310.969,64.636c0.354-0.1,0.705-0.199,1.058-0.299
	c0.456,0.449,1.001,0.84,1.351,1.361c0.586,0.873,2.283-0.43,2.25,0.976c-0.031,1.362-1.387,1.591-2.566,1.678
	c-0.414-0.813-1.155-0.999-1.976-1.035C311.047,66.423,311.008,65.529,310.969,64.636z"/>
<path fill-rule="evenodd" clip-rule="evenodd" fill="#F0E5E5" d="M101.884,67.324c0.154,0.362,0.31,0.726,0.463,1.088
	c-0.095,0.295-0.205,0.585-0.332,0.868c-1.548,0.898-1.872,2.501-2.319,4.032C99.029,70.806,97.15,67.856,101.884,67.324z"/>
<path fill-rule="evenodd" clip-rule="evenodd" fill="#BEBEBE" d="M354.904,98.226c0.154-2.512,0.308-5.023,0.461-7.534
	c1.579,2.809,0.879,5.354-0.041,7.875C355.182,98.452,355.043,98.339,354.904,98.226z"/>
<path fill-rule="evenodd" clip-rule="evenodd" fill="#F3E9E9" d="M303.112,116.501c0.328,0.737,0.657,1.475,0.985,2.213
	c-0.337,1.239-0.777,2.165-2.021,0.674c0.1-0.792-0.533-1.014-1.039-1.333c0.003-1.186,0.006-2.37,0.009-3.556
	c0.319-0.087,0.639-0.174,0.958-0.261C302.373,114.992,302.742,115.746,303.112,116.501z"/>
<path fill-rule="evenodd" clip-rule="evenodd" fill="#F0E5E5" d="M80.029,85.264c-0.891,1.632-2.759,0.946-4.022,1.695
	c0.229-1.227,2.103-2.429,0.054-3.688c1.323-0.021,2.646-0.04,3.968-0.06C80.029,83.895,80.029,84.579,80.029,85.264z"/>
<path fill-rule="evenodd" clip-rule="evenodd" fill="#F3E9E9" d="M308.018,101.656c0.529-0.039,1.057-0.078,1.586-0.117
	c0.813,1.569,0.742,2.943-0.883,3.97c-2.162-0.054-1.339-2.222-2.242-3.167C306.992,102.113,307.505,101.885,308.018,101.656z"/>
<path fill-rule="evenodd" clip-rule="evenodd" fill="#EB8383" d="M98.092,98.354c-0.344-0.001-0.686-0.001-1.027-0.002
	c-1.012,0.32-2.021,0.641-3.033,0.962c-0.47-2.407,1.273-3.188,2.951-4.017C97.676,96.198,98.361,97.103,98.092,98.354z"/>
<path fill-rule="evenodd" clip-rule="evenodd" fill="#F0E5E5" d="M70.652,93.38c0.035,2.982,0.07,5.965,0.105,8.946
	C69.496,99.358,69.618,96.375,70.652,93.38z"/>
<path fill-rule="evenodd" clip-rule="evenodd" fill="#F3E9E9" d="M250.697,93.377c0.034,2.983,0.068,5.968,0.102,8.952
	C249.514,99.359,249.646,96.373,250.697,93.377z"/>
<path fill-rule="evenodd" clip-rule="evenodd" fill="#F3E9E9" d="M219.708,108.226l0.329,0.011c0.01,1,0.018,2.001,0.027,3.001
	c-2.261,0.323-3.734-0.421-3.934-2.896C217.324,108.302,218.516,108.264,219.708,108.226z"/>
<path fill-rule="evenodd" clip-rule="evenodd" fill="#F39C9C" d="M60.069,86.581c1.561-0.25,2.493,0.484,2.981,1.908
	c-1.295,1.122-2.388,1.182-3.135-0.595C59.967,87.456,60.018,87.019,60.069,86.581z"/>
<path fill-rule="evenodd" clip-rule="evenodd" fill="#1E1E1E" d="M254.134,115.097c1.311-1.067,2.599-1.098,3.862,0.081
	C256.695,115.779,255.407,115.779,254.134,115.097z"/>
<path fill-rule="evenodd" clip-rule="evenodd" fill="#F6F6F6" d="M331.123,102.362c0.344-0.374,0.688-0.749,1.034-1.124
	c0.944,0.644,1.887,1.287,2.83,1.932c0.015,0.396,0.029,0.79,0.044,1.185c-0.648,0.115-1.296,0.23-1.944,0.346
	C332.076,104.221,331.457,103.411,331.123,102.362z"/>
<path fill-rule="evenodd" clip-rule="evenodd" fill="#F3E9E9" d="M332.053,108.454c0.701-0.373,1.404-0.746,2.106-1.119
	c1.561,1.862-0.138,2.864-1.073,4.066c-0.36-0.019-0.719-0.037-1.078-0.055C332.022,110.383,332.037,109.418,332.053,108.454z"/>
<path fill-rule="evenodd" clip-rule="evenodd" fill="#F0E5E5" d="M91.051,64.385c0.921-0.37,0.92-1.128,0.811-1.93
	c1.467-0.161,2.145,0.564,2.215,1.972c-0.006,0.306-0.016,0.61-0.027,0.916C92.953,65.321,91.768,65.586,91.051,64.385z"/>
<path fill-rule="evenodd" clip-rule="evenodd" fill="#F0E5E5" d="M33.955,105.75c-0.053-0.356,0.103-0.544,0.465-0.562
	c1.492,0.415,1.668,1.584,1.645,2.868c-0.359,0.852-0.503,1.981-1.911,1.485C34.088,108.278,34.021,107.014,33.955,105.75z"/>
<path fill-rule="evenodd" clip-rule="evenodd" fill="#F0E5E5" d="M64.77,109.319c0.174,0.638,0.348,1.276,0.521,1.914
	c-1.018-0.312-2.672,1.663-3.025-0.51C62.023,109.23,63.675,109.375,64.77,109.319z"/>
<path fill-rule="evenodd" clip-rule="evenodd" fill="#F39C9C" d="M65.044,88.297c0.085-1.497,1.823-1.074,2.368-2.038
	c0.697,0.845,0.819,1.757-0.055,2.481C66.514,89.439,65.634,89.392,65.044,88.297z"/>
<path fill-rule="evenodd" clip-rule="evenodd" fill="#F40E0E" d="M229.179,93.09c0.577,0.455,1.155,0.909,1.733,1.364
	c0.342,0.945,1.219,1.771,0.656,2.919C229.585,96.607,229.219,94.939,229.179,93.09z"/>
<path fill-rule="evenodd" clip-rule="evenodd" fill="#F0E5E5" d="M52.053,92.343c-1.049-0.262-1.459-1.012-1.539-2.015
	c0.865-0.504,1.731-1.009,2.597-1.513C52.949,90.049,53.469,91.485,52.053,92.343z"/>
<path fill-rule="evenodd" clip-rule="evenodd" fill="#F3E9E9" d="M283.06,81.368c-0.219,0.751,0.075,1.821-1.195,1.916
	c-1.09-0.776-1.104-1.695-0.359-2.715c0.485,0.032,0.972,0.064,1.456,0.097C282.804,80.927,282.836,81.161,283.06,81.368z"/>
<path fill-rule="evenodd" clip-rule="evenodd" fill="#F3E9E9" d="M145.055,106.425c-0.303,0.301-0.606,0.602-0.908,0.902
	c-0.422-0.478-0.846-0.955-1.27-1.434c0.58-0.793,1.158-1.587,1.738-2.38C144.762,104.485,144.908,105.455,145.055,106.425z"/>
<path fill-rule="evenodd" clip-rule="evenodd" fill="#1E1E1E" d="M248.936,111.042c0.053,0.729,0.105,1.457,0.158,2.186
	c-0.976,0.132-1.951,0.264-2.927,0.396c-0.044-0.595-0.087-1.189-0.131-1.784C247.003,111.574,247.969,111.308,248.936,111.042z"/>
<path fill-rule="evenodd" clip-rule="evenodd" fill="#F3E9E9" d="M278.227,99.279c-0.507-0.31-1.014-0.619-1.52-0.928
	c0.188-0.675,0.378-1.35,0.566-2.024C279.249,96.776,279.619,97.743,278.227,99.279z"/>
<path fill-rule="evenodd" clip-rule="evenodd" fill="#838383" d="M215.748,58.362c-0.297-0.104-0.592-0.209-0.888-0.313
	c-0.286-1.577,0.803-2.298,1.882-3.025c0.188,0.194,0.379,0.389,0.568,0.582C216.789,56.523,216.269,57.443,215.748,58.362z"/>
<path fill-rule="evenodd" clip-rule="evenodd" fill="#BEBEBE" d="M353.813,103.14c0.54-1.599-0.512-3.552,1.093-4.913
	c0.137,0.112,0.275,0.226,0.418,0.34c-0.56,1.582,0.475,3.54-1.152,4.867C354.173,103.435,353.813,103.14,353.813,103.14z"/>
<path fill-rule="evenodd" clip-rule="evenodd" fill="#F3E9E9" d="M244.078,83.345c-0.777-0.119-1.947-0.227-1.559-1.205
	c0.252-0.636,1.523-0.867,2.338-1.279C244.598,81.688,244.338,82.517,244.078,83.345z"/>
<path fill-rule="evenodd" clip-rule="evenodd" fill="#2A2A2A" d="M34.153,109.542c1.408,0.496,1.552-0.634,1.911-1.485
	c0.277-0.024,0.553-0.06,0.828-0.105c0.066,0.643,0.133,1.285,0.2,1.928c-1.112-0.392-2.128-0.116-3.104,0.447l0.116,0.085
	C34.158,110.123,34.174,109.834,34.153,109.542z"/>
<path fill-rule="evenodd" clip-rule="evenodd" fill="#F6F6F6" d="M361.772,93.79c-0.972-0.766-1.468-1.497-1.323-2.508
	c0.01-0.065,0.59-0.187,0.744-0.07C361.86,91.72,362.092,92.431,361.772,93.79z"/>
<path fill-rule="evenodd" clip-rule="evenodd" fill="#F0CFCF" d="M146.705,71.395c0.173,0.564,0.345,1.129,0.516,1.696
	c-0.881,0.113-1.762,0.225-2.643,0.336c-0.116-0.395-0.232-0.789-0.349-1.185C145.055,71.96,145.88,71.677,146.705,71.395z"/>
<path fill-rule="evenodd" clip-rule="evenodd" fill="#717171" d="M96.889,111.646c0.707-0.116,1.414-0.232,2.121-0.349
	c0.404,0.494,0.809,0.988,1.213,1.482c-1.062,0.18-2.122,0.359-3.184,0.539C96.989,112.762,96.938,112.204,96.889,111.646z"/>
<path fill-rule="evenodd" clip-rule="evenodd" fill="#F6F6F6" d="M368.07,119.066c-0.34,0.092-0.68,0.184-1.021,0.275
	c-0.674-0.352-1.798-1.028-1.165-1.56C367.119,116.744,367.793,117.826,368.07,119.066z"/>
<path fill-rule="evenodd" clip-rule="evenodd" fill="#BEBEBE" d="M101.129,57.406c-0.014,0.568-0.028,1.137-0.043,1.706
	c-0.084,0.771-0.523,1.192-1.278,1.305c-0.29-0.279-0.582-0.559-0.874-0.84C99.098,58.278,99.939,57.666,101.129,57.406z"/>
<path fill-rule="evenodd" clip-rule="evenodd" fill="#F6F6F6" d="M357.918,89.012c-0.156-0.231-0.303-0.448-0.448-0.665
	c0.312-0.161,0.624-0.323,0.937-0.484c0.088,0.26,0.306,0.574,0.227,0.766C358.555,88.817,358.178,88.885,357.918,89.012z"/>
<path fill-rule="evenodd" clip-rule="evenodd" fill="#F0E5E5" d="M60.13,112.318c-0.363-0.056-0.727-0.11-1.09-0.165
	c0.179-0.779,0.327-1.848,1.426-1.293C61.205,111.232,60.811,111.947,60.13,112.318z"/>
<path fill-rule="evenodd" clip-rule="evenodd" fill="#F6F6F6" d="M332.008,111.347c0.359,0.018,0.718,0.036,1.078,0.055
	c-0.066,1.155-0.578,1.894-1.82,1.95c-0.164-0.278-0.247-0.579-0.251-0.901C331.346,112.082,331.677,111.715,332.008,111.347z"/>
<path fill-rule="evenodd" clip-rule="evenodd" fill="#F3E9E9" d="M342.157,74.2c0.6,0,1.198,0,1.797-0.002
	c-0.216,0.563-0.36,1.564-0.661,1.613C342.104,76.006,342.205,74.99,342.157,74.2z"/>
<path fill-rule="evenodd" clip-rule="evenodd" fill="#929292" d="M208.057,78.391c-0.197-1.396,0.393-1.989,1.791-1.753
	C209.781,77.766,209.119,78.283,208.057,78.391z"/>
<path fill-rule="evenodd" clip-rule="evenodd" fill="#F0E5E5" d="M35.945,97.386l-0.428,0.025c0,0-0.422-0.067-0.423-0.067
	c-0.026-0.353-0.053-0.704-0.079-1.056c0.409-0.295,0.818-0.589,1.228-0.883C37.254,96.232,36.957,96.862,35.945,97.386z"/>
<path fill-rule="evenodd" clip-rule="evenodd" fill="#1E1E1E" d="M286.134,121.09c0.788-0.883,1.412-0.651,1.934,0.283
	C287.359,121.716,286.705,121.68,286.134,121.09z"/>
<path fill-rule="evenodd" clip-rule="evenodd" fill="#F3E9E9" d="M115.162,67.335c-0.663-0.963-0.498-1.963-0.131-2.973
	C116.35,65.297,116.314,66.291,115.162,67.335z"/>
<path fill-rule="evenodd" clip-rule="evenodd" fill="#929292" d="M210.005,58.328c-1.235-0.724-1.613-1.712-0.937-3.027
	C210.523,55.957,210.188,57.166,210.005,58.328z"/>
<path fill-rule="evenodd" clip-rule="evenodd" fill="#BEBEBE" d="M335.031,104.354c-0.015-0.395-0.029-0.789-0.044-1.185
	c1.122,0.055,2.246,0.111,3.374,0.166C337.583,104.751,336.259,104.395,335.031,104.354z"/>
<path fill-rule="evenodd" clip-rule="evenodd" fill="#F0E5E5" d="M71.975,66.265c0.167-0.432,0.334-0.862,0.502-1.293
	c0.123,0.098,0.365,0.261,0.352,0.285c-0.213,0.392-0.459,0.765-0.696,1.144C72.133,66.4,71.975,66.265,71.975,66.265z"/>
<path fill-rule="evenodd" clip-rule="evenodd" fill="#F0E5E5" d="M32.121,82.054c-0.73-0.061-1.311-0.408-1.259-1.163
	c0.015-0.221,0.759-0.393,1.167-0.586C32.061,80.888,32.091,81.471,32.121,82.054z"/>
<path fill-rule="evenodd" clip-rule="evenodd" fill="#B43C3C" d="M313.618,80.626c0.214,0.191,0.393,0.407,0.536,0.645
	c-0.262,0.372-0.523,0.745-0.787,1.119C313.451,81.802,313.535,81.214,313.618,80.626z"/>
<path fill-rule="evenodd" clip-rule="evenodd" fill="#F0E5E5" d="M4.061,55.86c0.656-0.083,1.313-0.167,1.971-0.251
	c-0.61,0.313-1.221,0.627-1.831,0.941c0,0-0.102,0.032-0.101,0.034C3.982,56.35,3.97,56.107,4.061,55.86z"/>
<path fill-rule="evenodd" clip-rule="evenodd" fill="#F3E9E9" d="M281.489,93.431c0.053,0.626,0.105,1.252,0.158,1.878
	C280.918,94.739,280.875,94.112,281.489,93.431z"/>
<path fill-rule="evenodd" clip-rule="evenodd" fill="#F0E5E5" d="M63.066,70.247c-0.654-0.001-1.311-0.002-1.966-0.004
	c-0.021-0.331,0.046-0.642,0.204-0.933C61.892,69.623,62.479,69.935,63.066,70.247z"/>
<path fill-rule="evenodd" clip-rule="evenodd" fill="#F3E9E9" d="M297.633,68.293c-0.461,1.631-1.075,1.324-1.759,0.139
	C296.461,68.386,297.047,68.339,297.633,68.293z"/>
<path fill-rule="evenodd" clip-rule="evenodd" fill="#F6F6F6" d="M311.085,67.316c0.82,0.036,1.562,0.222,1.976,1.035l0.003-0.006
	c-0.326,0.004-0.652,0.006-0.979,0.003C311.752,68.005,311.418,67.661,311.085,67.316z"/>
<path fill-rule="evenodd" clip-rule="evenodd" fill="#F6F6F6" d="M329.059,115.349c0.104-0.557,0.246-1.068,1.004-0.879
	C329.833,114.883,330.461,116.276,329.059,115.349z"/>
<path fill-rule="evenodd" clip-rule="evenodd" fill="#A0A0A0" d="M34.055,60.331c-0.652,0.328-1.305,0.655-1.957,0.983
	c0,0-0.017,0.055-0.017,0.054c0.036-0.277,0.079-0.553,0.128-0.828L32.2,60.567l0.274,0.173l0.298-0.128
	c0.434-0.086,0.867-0.171,1.301-0.256L34.055,60.331z"/>
<path fill-rule="evenodd" clip-rule="evenodd" fill="#F3E9E9" d="M282.067,98.321c0.185,0.332,0.368,0.664,0.552,0.996
	C282.436,98.985,282.251,98.653,282.067,98.321z"/>
<path fill-rule="evenodd" clip-rule="evenodd" fill="#F0E5E5" d="M34.918,65.673c-0.184-0.465-0.367-0.931-0.551-1.396
	C34.551,64.742,34.734,65.208,34.918,65.673z"/>
<path fill-rule="evenodd" clip-rule="evenodd" fill="#F3E9E9" d="M272.096,106.359c0.584,0.133,0.806,0.503,0.705,1.082
	c-0.273-0.016-0.543-0.058-0.808-0.126C271.898,106.983,271.934,106.664,272.096,106.359z"/>
<path fill-rule="evenodd" clip-rule="evenodd" fill="#F3E9E9" d="M312.93,106.712c-0.264,0.273-0.527,0.547-0.791,0.821
	C312.067,106.937,312.094,106.435,312.93,106.712z"/>
<path fill-rule="evenodd" clip-rule="evenodd" fill="#F3E9E9" d="M232.076,87.34c-0.15-0.772-0.092-1.39,0.949-1.275
	C232.709,86.489,232.393,86.915,232.076,87.34z"/>
<path fill-rule="evenodd" clip-rule="evenodd" fill="#F3E9E9" d="M251.08,104.291c0.277,0.364,0.555,0.729,0.833,1.094
	C251.635,105.021,251.357,104.655,251.08,104.291z"/>
<path fill-rule="evenodd" clip-rule="evenodd" fill="#F3E9E9" d="M235.189,106.991c0.353,0.164,0.704,0.327,1.059,0.493
	c0.08,0.242,0.125,0.489,0.138,0.742C235.645,108.146,235.254,107.728,235.189,106.991z"/>
<path fill-rule="evenodd" clip-rule="evenodd" fill="#F0E5E5" d="M100.064,74.413c0.423,0.21,0.846,0.42,1.269,0.629
	C100.727,75.203,100.31,74.982,100.064,74.413z"/>
<path fill-rule="evenodd" clip-rule="evenodd" fill="#CD1414" d="M33.896,64.407c-0.258-0.396-0.516-0.794-0.773-1.19
	C33.381,63.613,33.639,64.01,33.896,64.407z"/>
<path fill-rule="evenodd" clip-rule="evenodd" fill="#F3E9E9" d="M313.252,98.839c0.127,0.482,0.253,0.965,0.379,1.446
	C313.505,99.803,313.379,99.32,313.252,98.839z"/>
<path fill-rule="evenodd" clip-rule="evenodd" fill="#F0E5E5" d="M34.018,83.271c-0.388-0.281-0.775-0.563-1.164-0.844
	C33.241,82.709,33.63,82.99,34.018,83.271z"/>
<path fill-rule="evenodd" clip-rule="evenodd" fill="#F3E9E9" d="M312.085,68.349c0.326,0.003,0.652,0.001,0.979-0.003
	C312.739,68.912,312.413,68.945,312.085,68.349z"/>
<path fill-rule="evenodd" clip-rule="evenodd" fill="#F0E5E5" d="M34.98,84.532c-0.284-0.383-0.568-0.767-0.852-1.149
	C34.413,83.767,34.697,84.149,34.98,84.532z"/>
<path fill-rule="evenodd" clip-rule="evenodd" fill="#F0E5E5" d="M40.395,100.681c0.254,0.543,0.507,1.087,0.76,1.63
	C40.467,101.97,40.222,101.423,40.395,100.681z"/>
<path fill-rule="evenodd" clip-rule="evenodd" fill="#F3E9E9" d="M250.155,68.145c0.225-0.012,0.443-0.054,0.653-0.129
	c-0.07,0.249-0.139,0.5-0.206,0.752C250.453,68.561,250.305,68.353,250.155,68.145z"/>
<path fill-rule="evenodd" clip-rule="evenodd" fill="#F0E5E5" d="M117.992,69.412c0,0-0.064-0.024-0.064-0.023
	c-0.244-0.142-0.508-0.203-0.791-0.185c0.213-0.257,0.286-0.55,0.222-0.877C117.569,68.688,117.781,69.051,117.992,69.412z"/>
<path fill-rule="evenodd" clip-rule="evenodd" fill="#F40E0E" d="M117.358,68.327c0.064,0.327-0.009,0.62-0.222,0.877
	c-0.34-0.249-0.68-0.497-1.02-0.745C116.531,68.415,116.945,68.371,117.358,68.327z"/>
<path fill-rule="evenodd" clip-rule="evenodd" fill="#F0E5E5" d="M94.055,68.988c-0.275-0.232-0.551-0.464-0.827-0.696
	C93.504,68.524,93.779,68.756,94.055,68.988z"/>
<path fill-rule="evenodd" clip-rule="evenodd" fill="#CD1414" d="M33.187,63.303c-0.313-0.403-0.625-0.807-0.938-1.21
	C32.926,62.213,33.219,62.631,33.187,63.303z"/>
<path fill-rule="evenodd" clip-rule="evenodd" fill="#F0E5E5" d="M103.045,104.424c0.295,0.04,0.59,0.087,0.885,0.14
	c-0.008,0.274-0.047,0.544-0.112,0.809C103.561,105.057,103.303,104.74,103.045,104.424z"/>
<path fill-rule="evenodd" clip-rule="evenodd" fill="#BEBEBE" d="M345.848,105.517c0,0-0.475,0.022-0.474,0.023
	c-0.156-0.348-0.313-0.696-0.472-1.044c0.146-0.141,0.293-0.281,0.443-0.424C345.515,104.552,345.682,105.034,345.848,105.517z"/>
<path fill-rule="evenodd" clip-rule="evenodd" fill="#F0E5E5" d="M71.992,105.619c0.294,0.047,0.58,0.123,0.859,0.229
	c-0.045,0.198-0.148,0.357-0.312,0.479C72.205,106.21,72.021,105.975,71.992,105.619z"/>
<path fill-rule="evenodd" clip-rule="evenodd" fill="#FDFDFD" d="M4.2,56.551c0.61-0.314,1.221-0.628,1.831-0.941
	c7.007-0.316,14.015-0.589,21.011,0.221c1.511,0.975,3.606,0.354,4.942,1.808c0.072,0.977,0.145,1.953,0.216,2.93
	c0,0,0.009-0.027,0.007-0.029c-0.35-0.076-0.699-0.15-1.048-0.224c-1.501-0.531-3.001-1.063-4.503-1.595
	c-0.414-0.831-0.98-0.646-1.58-0.236c-5.68-0.094-11.359-0.187-17.039-0.28c-0.373-0.574-0.98-0.904-1.407-0.312
	c-0.614,0.851,0.054,1.287,0.847,1.515c0.563,0.573,1.127,1.147,1.689,1.722c-0.127,0.297-0.188,0.606-0.186,0.93l0.063,0.349
	c-0.914-0.214-1.893-0.533-1.703,1.048c0.011,0.633,0.021,1.267,0.031,1.9c-0.105,11.667-0.213,23.334-0.318,35.001
	c0.03,1.056,0.061,2.111,0.092,3.167c-0.244,1.465,0.378,2.223,1.86,2.278c0.149,1.051-1.38,2.019-0.286,3.039
	c0.553,0.516,1.121-0.025,1.428-0.64c2.637-0.127,5.273-0.254,7.91-0.381c5.373-0.126,10.9,0.931,15.898-2.069
	c0.066,1.264,0.133,2.528,0.198,3.792c0.021,0.292,0.005,0.581-0.048,0.869c-8.223,1.375-16.518,1.01-24.798,1.049
	c-2.972,0.015-5.497-0.654-5.468-4.22C3.973,90.344,3.268,73.44,4.2,56.551z"/>
<path fill-rule="evenodd" clip-rule="evenodd" fill="#F30909" d="M186.349,95.338c0.448,5.296-1.411,9.663-6.283,11.818
	c-5.339,2.361-10.935,2.1-16.259-0.613c-0.895-0.455-0.842-1.32-0.855-2.144c2.348-1.472,4.227-3.342,5.124-6.043
	c1.007-0.563,1.317-2.096,2.794-2.004c0.014,1.003,0.027,2.006,0.042,3.009c-0.106,0.115-0.322,0.304-0.302,0.334
	c0.15,0.225,0.348,0.418,0.531,0.622c0.588,0.439,1.176,0.879,1.765,1.318c0.312,0.646,0.468,1.62,1.513,1.147
	c0.852-0.386,0.646-1.257,0.576-2.006l-0.01,0.061c1.812-1.307,2.523-3.169,1.899-5.207c-1.29-4.214-0.45-8.502-0.781-12.738
	c-0.173-2.216,0.831-4.636-1.006-6.603c-0.575-1.892-1.554-2.966-3.639-1.796c-0.7-0.054-1.401-0.107-2.103-0.16
	c-0.526-0.96-1.053-1.919-1.578-2.878c3.158-4.469,7.582-1.418,11.407-1.921c0.938,1.297,1.204,3.1,2.886,3.839l-0.035-0.055
	c-0.002,0.708-0.003,1.415-0.004,2.123c1.012,3.478,2.504,6.734,4.474,9.772c0.569,2.026,0.528,3.857-1.608,5.016
	c-1.295,0.37-2.59,0.739-3.885,1.109c-1.294,0.049-1.925,0.738-1.949,2.016c-0.768,2.333,0.471,3.177,2.424,2.626
	C183.119,95.521,184.691,95.29,186.349,95.338z"/>
<path fill-rule="evenodd" clip-rule="evenodd" fill="#F80202" d="M191.838,63.771c0,0-0.041-0.201-0.041-0.205
	c4.16-3.621,9.16-3.328,14.157-3.045c0.257,2.311,0.255,4.362-3.009,4.318c-1.045-0.014-1.892,0.859-1.941,1.938
	c-0.048,1.04,0.773,2.226,1.614,2.225c3.202-0.002,2.302,2.955,3.456,4.388c-3.07,0.488-4.54,2.039-4.189,5.379
	c0.303,2.894-0.164,5.858,0.639,8.729c-2.539,0.19-2.891-3.455-5.502-3.138c-0.281-0.097-0.57-0.136-0.868-0.115
	c-0.987-1.491-2.278-2.56-4.068-2.939c-0.51-2.428,0.181-4.835-2.374-7.101c-2.575-2.284,0.438-4.597,2.236-6.451
	C191.91,66.424,191.874,65.098,191.838,63.771z"/>
<path fill-rule="evenodd" clip-rule="evenodd" fill="#F90707" d="M197.021,84.359c2.611-0.317,2.963,3.328,5.5,3.137
	c-0.148,0.712-0.215,1.4,0.554,1.836c0.002,4.287,0.005,8.574,0.005,12.861c0,6.224-0.59,6.625-6.94,4.729
	c0.115-3.161-3.059-5.03-3.18-8.102c0.034-3.093,0.167-6.186,0.072-9.271c-0.068-2.229,0.719-3.405,3.033-3.329
	C197.182,86.011,196.959,85.111,197.021,84.359z"/>
<path fill-rule="evenodd" clip-rule="evenodd" fill="#A72727" d="M161.941,104.197c-1.238-0.213-1.484-1.329-1.653-2.205
	c-1.778-9.209-1.759-18.459-0.073-27.662c0.373-2.037,1.431-4.106,3.856-4.769c0.474,0.812,0.948,1.622,1.421,2.435
	c-2.084,0.986-3.258,2.518-3.638,4.895c-1.36,8.515-1.462,16.998,0.167,25.481C161.995,102.98,161.969,103.589,161.941,104.197z"/>
<path fill-rule="evenodd" clip-rule="evenodd" fill="#EB8383" d="M192.961,98.824c0.12,3.068,3.294,4.938,3.179,8.099
	c-2.027,1.714-4.934,2.688-5.036-0.757c-0.229-7.723-1.158-15.529,0.486-23.232c0.156,0.142,0.313,0.28,0.471,0.416
	C192.076,88.524,190.695,93.78,192.961,98.824z"/>
<path fill-rule="evenodd" clip-rule="evenodd" fill="#F40E0E" d="M186.505,85.215c-1.97-3.038-3.462-6.295-4.474-9.773
	c1.157-0.705,1.18-1.412,0.004-2.122l0.035,0.055c0.045-0.9,0.097-1.798,1.111-2.212C188.244,74.912,186.453,80.281,186.505,85.215z
	"/>
<path fill-rule="evenodd" clip-rule="evenodd" fill="#A72727" d="M179.185,69.535c-3.825,0.503-8.249-2.548-11.405,1.921
	c-0.847-0.685-1.694-1.371-2.542-2.057c3.087-3.464,8.241-3.909,14.181-1.227C179.34,68.626,179.262,69.081,179.185,69.535z"/>
<path fill-rule="evenodd" clip-rule="evenodd" fill="#EB8383" d="M203.075,89.332c-0.769-0.436-0.702-1.124-0.554-1.836
	c-0.801-2.87-0.334-5.835-0.637-8.729c-0.351-3.34,1.119-4.891,4.189-5.379c-2.909,2.896-2.162,6.599-2.307,10.135
	C203.688,85.465,204.41,87.532,203.075,89.332z"/>
<path fill-rule="evenodd" clip-rule="evenodd" fill="#B43C3C" d="M205.954,60.521c-4.997-0.283-9.997-0.576-14.157,3.045
	c-0.057-4.042,2.996-5.103,5.914-5.019C200.449,58.626,204.212,55.932,205.954,60.521z"/>
<path fill-rule="evenodd" clip-rule="evenodd" fill="#CD1414" d="M186.349,95.338c-1.657-0.048-3.229,0.183-4.862,0.644
	c-1.953,0.551-3.191-0.293-2.424-2.626c0.932-0.47,2.482,1.623,2.963-0.716c1.572-0.023,3.146-0.046,4.719-0.068
	C186.612,93.494,186.48,94.416,186.349,95.338z"/>
<path fill-rule="evenodd" clip-rule="evenodd" fill="#F40E0E" d="M161.941,104.197c0.027-0.608,0.054-1.217,0.081-1.825
	c1.766-1.695,2.739-4.551,5.981-4.08l0.071,0.064c-0.897,2.701-2.776,4.571-5.124,6.043
	C162.615,104.332,162.278,104.265,161.941,104.197z"/>
<path fill-rule="evenodd" clip-rule="evenodd" fill="#EB8383" d="M165.237,69.399c0.848,0.686,1.695,1.372,2.542,2.057
	c0.523,0.959,1.05,1.918,1.574,2.878c-0.098,0.374-0.192,0.748-0.287,1.122c-1.191-1.154-2.381-2.308-3.572-3.461
	c-0.475-0.812-0.949-1.622-1.423-2.434C164.461,69.508,164.85,69.453,165.237,69.399z"/>
<path fill-rule="evenodd" clip-rule="evenodd" fill="#F35353" d="M179.185,69.535c0.077-0.454,0.155-0.909,0.233-1.362
	c1.899,0.188,2.771,1.666,3.764,2.99c-1.015,0.413-1.066,1.311-1.111,2.211C180.389,72.635,180.123,70.832,179.185,69.535z"/>
<path fill-rule="evenodd" clip-rule="evenodd" fill="#FDFDFD" d="M212.264,65.374c0.004,0.981,0.008,1.963,0.013,2.944
	c-1.016-0.036-2.08-0.092-2.082-1.465C210.191,65.491,211.234,65.397,212.264,65.374z"/>
<path fill-rule="evenodd" clip-rule="evenodd" fill="#EB8383" d="M186.744,92.571c-1.572,0.022-3.146,0.045-4.719,0.067
	c-0.64-0.197-1.032-0.588-1.014-1.299c1.295-0.37,2.59-0.739,3.885-1.109C185.139,91.306,186.967,91.129,186.744,92.571z"/>
<path fill-rule="evenodd" clip-rule="evenodd" fill="#EB8383" d="M192.085,81.305c1.79,0.38,3.081,1.448,4.067,2.939
	c-0.209,0.213-0.42,0.424-0.631,0.636c-1.154-0.511-2.308-1.021-3.461-1.53c-0.158-0.136-0.314-0.274-0.471-0.416
	C191.754,82.39,191.92,81.848,192.085,81.305z"/>
<path fill-rule="evenodd" clip-rule="evenodd" fill="#B43C3C" d="M191.838,63.771c0.036,1.327,0.072,2.653,0.109,3.982
	C190.804,66.457,190.832,65.128,191.838,63.771z"/>
<path fill-rule="evenodd" clip-rule="evenodd" fill="#F6F6F6" d="M22.98,100.192c-0.316,0.089-0.623,0.204-0.918,0.346
	c-0.336-0.064-0.672-0.128-1.008-0.192c-0.379-0.594-0.759-1.187-1.139-1.78c-0.08-2.693-0.16-5.388-0.241-8.082
	c0.312-0.808,0.293-1.586-0.202-2.323c0.317-0.881,0.248-2.375,1.37-2.316c1.827,0.097,2.895,2.078,2.983,3.304
	c0.242,3.335,1.036,6.82-0.646,10.068C23.113,99.541,23.047,99.867,22.98,100.192z"/>
<path fill-rule="evenodd" clip-rule="evenodd" fill="#F0E5E5" d="M20.08,67.4c2.141-0.988,3.021,0.419,3.808,2.002
	c-0.425,3.103,1.504,6.996-2.938,8.752c-2.648-2.292-0.037-5.862-2.021-8.315C19.313,69.026,19.695,68.213,20.08,67.4z"/>
<path fill-rule="evenodd" clip-rule="evenodd" fill="#AC1E1E" d="M20.949,78.154c4.442-1.756,2.514-5.649,2.938-8.752
	c2.167,3.38,3.935,6.735-0.337,9.907C21.95,80.498,21.223,79.876,20.949,78.154z"/>
<path fill-rule="evenodd" clip-rule="evenodd" fill="#F39C9C" d="M22.98,100.192c0.066-0.325,0.133-0.651,0.199-0.977
	c4.228,0.165,7.674-2.83,11.836-2.928c0.026,0.352,0.053,0.703,0.079,1.056C31.146,98.673,27.747,102.342,22.98,100.192z"/>
<path fill-rule="evenodd" clip-rule="evenodd" fill="#F39C9C" d="M22.07,101.241c-2.324,3.76-6.63,3.475-10.078,4.939
	c0.021-0.584,0.043-1.169,0.064-1.753c0.1-0.315,0.155-0.638,0.166-0.968c0,0,0.081,0.127,0.081,0.128
	C15.719,103.472,18.51,100.757,22.07,101.241z"/>
<path fill-rule="evenodd" clip-rule="evenodd" fill="#EB8383" d="M20.08,67.4c-0.385,0.813-0.768,1.626-1.152,2.438
	c-2.094-1.257-4.188-2.515-6.279-3.771c-0.112-0.276-0.28-0.515-0.502-0.716c-0.069-0.657-0.138-1.314-0.206-1.972
	c0.354-0.024,0.71-0.049,1.065-0.073C15.402,64.603,16.873,67.501,20.08,67.4z"/>
<path fill-rule="evenodd" clip-rule="evenodd" fill="#F35353" d="M19.473,88.16c0.495,0.737,0.514,1.516,0.202,2.323
	c-0.802-0.096-1.598-0.368-1.443-1.307C18.297,88.78,19.038,88.496,19.473,88.16z"/>
<path fill-rule="evenodd" clip-rule="evenodd" fill="#F35353" d="M19.916,98.565c0.38,0.594,0.76,1.187,1.139,1.78
	C19.896,100.25,19.803,99.475,19.916,98.565z"/>
<path fill-rule="evenodd" clip-rule="evenodd" fill="#F0CFCF" d="M83.09,101.545c-1.855-3.54-1.817-7.123,0.103-10.564
	c0.956-1.715,2.289-2.703,2.964,0.315c-0.074,2.237-0.201,4.474-0.209,6.71C85.941,99.999,85.473,101.518,83.09,101.545z"/>
<path fill-rule="evenodd" clip-rule="evenodd" fill="#F0CFCF" d="M80.029,85.264c0-0.685,0-1.369-0.001-2.053
	c3.306-1.316,1.464-4.219,1.829-6.364c0.587-3.449,1.637-4.214,4.114-1.369C86.909,80.513,85.032,83.837,80.029,85.264z"/>
<path fill-rule="evenodd" clip-rule="evenodd" fill="#AF0808" d="M83.09,101.545c2.383-0.027,2.852-1.546,2.857-3.539
	c0.008-2.236,0.135-4.473,0.209-6.71c2.174,2.425,2.655,9.387,0.631,11.177C85.297,103.79,83.789,103.974,83.09,101.545z"/>
<path fill-rule="evenodd" clip-rule="evenodd" fill="#F6F6F6" d="M297.166,79.237c-0.038,1.015-0.075,2.03-0.112,3.045
	c-0.007,3.13-0.065,6.261,0.001,9.39c0.041,1.904-0.234,3.574-2.092,4.568c-1.891-2.797-0.713-5.97-1.122-8.946
	c-0.229-1.673,0.862-3.533-0.685-5.021c-0.076-0.661-0.154-1.322-0.23-1.983c0.324-1.205,0.76-2.393,0.952-3.618
	c0.668-4.256,2.126-1.729,3.456-0.438C297.277,77.234,297.222,78.235,297.166,79.237z"/>
<path fill-rule="evenodd" clip-rule="evenodd" fill="#BE2C2C" d="M294.85,107.765c2.487-0.612,2.5-2.568,2.472-4.549
	c2.78,1.31,2.062,3.443,0.828,5.163C297.111,109.826,295.646,109.644,294.85,107.765z"/>
<path fill-rule="evenodd" clip-rule="evenodd" fill="#F39C9C" d="M308.018,101.656c-0.513,0.229-1.025,0.457-1.539,0.686
	c-1.417-1.595-2.207-3.52-2.894-5.499c0.243-0.245,0.487-0.49,0.729-0.735C306.123,97.574,307.094,99.6,308.018,101.656z"/>
<path fill-rule="evenodd" clip-rule="evenodd" fill="#F35353" d="M292.926,80.29c0.076,0.661,0.154,1.322,0.23,1.983
	c-2.369,0.006-4.739,0.012-7.109,0.018c-0.071-0.311-0.082-0.624-0.033-0.938C288.432,81.736,290.681,81.029,292.926,80.29z"/>
<path fill-rule="evenodd" clip-rule="evenodd" fill="#F39C9C" d="M303.585,96.843c-0.67-0.979-1.341-1.958-2.146-3.135
	c2.167-0.117,2.444,1.221,2.876,2.399C304.072,96.353,303.828,96.598,303.585,96.843z"/>
<path fill-rule="evenodd" clip-rule="evenodd" fill="#F40E0E" d="M102.015,69.28c0.127-0.283,0.237-0.573,0.332-0.868
	c0.593-0.052,1.187-0.104,1.779-0.158c1.239,0.795,2.335,1.699,2.781,3.383C104.225,72.608,103.428,70.314,102.015,69.28z"/>
<path fill-rule="evenodd" clip-rule="evenodd" fill="#F40E0E" d="M109.654,77.36c-0.309-0.078-0.654-0.094-0.92-0.246
	c-1.113-0.638-2.252-1.32-2.239-2.801c0.003-0.279,0.618-0.781,0.961-0.791c1.841-0.049,2.448,1.168,2.596,2.769
	C109.92,76.647,109.787,77.004,109.654,77.36z"/>
<path fill-rule="evenodd" clip-rule="evenodd" fill="#F40E0E" d="M112.248,79.328c0.599,0.171,1.197,0.343,1.797,0.516
	c-0.155,0.511-0.311,1.021-0.465,1.529c-0.505-0.326-1.01-0.653-1.516-0.98C112.125,80.037,112.187,79.683,112.248,79.328z"/>
<path fill-rule="evenodd" clip-rule="evenodd" fill="#F35353" d="M112.248,79.328c-0.062,0.354-0.123,0.709-0.184,1.064
	c-0.389-0.634-0.778-1.268-1.166-1.904c0.003-0.002,0.29-0.267,0.29-0.267C111.541,78.591,111.895,78.959,112.248,79.328z"/>
<path fill-rule="evenodd" clip-rule="evenodd" fill="#F35353" d="M109.654,77.36c0.133-0.356,0.266-0.713,0.397-1.069
	c0.378,0.645,0.756,1.289,1.136,1.932c0.001-0.001-0.286,0.264-0.289,0.266C110.482,78.113,110.068,77.737,109.654,77.36z"/>
<path fill-rule="evenodd" clip-rule="evenodd" fill="#F35353" d="M113.58,81.373c0.154-0.509,0.31-1.019,0.465-1.529
	c0.212,0.07,0.404,0.179,0.575,0.323c-0.06,0.46-0.118,0.92-0.179,1.38C114.132,81.602,113.845,81.543,113.58,81.373z"/>
<path fill-rule="evenodd" clip-rule="evenodd" fill="#F35353" d="M114.555,83.262c0.02,0.392,0.041,0.783,0.062,1.175
	C114.031,84.074,113.992,83.684,114.555,83.262z"/>
<path fill-rule="evenodd" clip-rule="evenodd" fill="#F0CFCF" d="M263.111,101.434c-1.588-3.48-1.693-7.003,0.213-10.336
	c0.771-1.35,2.232-3.259,2.977,0.207c-0.095,2.157-0.24,4.313-0.27,6.471C266.004,99.795,265.689,101.492,263.111,101.434z"/>
<path fill-rule="evenodd" clip-rule="evenodd" fill="#AC1E1E" d="M263.111,101.434c2.578,0.059,2.893-1.639,2.92-3.658
	c0.029-2.158,0.175-4.313,0.27-6.471c3.377,3.181,1.864,7.134,1.031,10.536C266.875,103.713,264.282,104.562,263.111,101.434z"/>
<path fill-rule="evenodd" clip-rule="evenodd" fill="#F80202" d="M222.004,78.339c-1.66-2.862-0.82-5.981-0.93-9.004
	c0.66,0.003,1.32,0.005,1.981,0.007c2.824,2.23,5.651-0.377,8.478,0.005c0.135,2.669,0.271,5.338,0.405,8.006
	c-0.946,1.468,0.132,3.674-1.751,4.799c-2.564,3.632-4.404,1.797-6.143-0.813c-0.349-0.318-0.698-0.636-1.047-0.954
	c0,0,0.009-0.002,0.009-0.003C223.053,79.514,222.865,78.761,222.004,78.339z"/>
<path fill-rule="evenodd" clip-rule="evenodd" fill="#F35353" d="M230.188,82.151c1.883-1.125,0.805-3.331,1.751-4.799
	c2.491,0.37,3.14-1.151,3.267-3.194c0.102-1.631,0.189-3.264,0.282-4.896c1.681,1.277-0.907,4.71,2.566,5.081
	c0.003,0.663,0.006,1.325,0.009,1.987c-0.377,0.961-0.754,1.922-1.131,2.882c-0.001-0.001,0.061,0.054,0.061,0.054
	c-0.695,0.324-1.391,0.648-2.087,0.972C233.439,81.139,232.264,82.754,230.188,82.151z"/>
<path fill-rule="evenodd" clip-rule="evenodd" fill="#EB8383" d="M225.096,87.231c-0.033-0.313-0.053-0.627-0.056-0.942
	c1.95,0.104,3.27,0.825,3.01,3.086c-0.6-0.368-1.198-0.736-1.798-1.104C225.865,87.925,225.48,87.578,225.096,87.231z"/>
<path fill-rule="evenodd" clip-rule="evenodd" fill="#CD1414" d="M234.905,80.238c0.696-0.323,1.392-0.647,2.087-0.972
	C236.834,80.745,236.521,81.891,234.905,80.238z"/>
<path fill-rule="evenodd" clip-rule="evenodd" fill="#F40E0E" d="M222.998,80.385c0.349,0.318,0.698,0.636,1.047,0.954
	c-0.39-0.033-0.779-0.066-1.171-0.1C222.934,80.956,222.975,80.672,222.998,80.385z"/>
<path fill-rule="evenodd" clip-rule="evenodd" fill="#FDFDFD" d="M144.578,73.427c0.881-0.111,1.762-0.223,2.643-0.336
	c0.008,0.338,0.014,0.678,0.021,1.018c-0.027,2.469-0.055,4.938-0.082,7.41c-3.602,2.235-2.084,4.575-0.141,6.924
	c1.289,5.201,1.415,10.381,0.051,15.615c-0.332,1.271-0.644,2.164-2.016,2.366c-0.146-0.969-0.293-1.938-0.439-2.91
	c0.788-3.044,1.615-6.085,0.703-9.257c-0.073-0.634-0.146-1.268-0.219-1.901c0.318-0.922,0.066-1.631-0.787-2.116
	c-1.055-3.693-4.851-4.252-7.283-6.369c-0.285-0.176-0.57-0.353-0.854-0.528c-0.688-0.354-1.375-0.708-2.063-1.063
	c0.047-0.739,0.093-1.478,0.139-2.216c3.274,0.104,6.549,0.208,9.822,0.312c2.521-0.354,2.385-1.541,0.979-3.126
	C144.893,75.976,144.736,74.701,144.578,73.427z"/>
<path fill-rule="evenodd" clip-rule="evenodd" fill="#F0CFCF" d="M129.869,100.284c1.531-1.947,0.045-3.995,0.198-5.988
	c0.089-0.834,0.177-1.667,0.265-2.502c0.917,0.486,1.834,0.974,2.75,1.461c0.592,0.698,1.184,1.396,1.774,2.095
	c-0.035,1.134-0.091,2.268-0.1,3.401c-0.009,1.303,0.08,2.719-1.369,3.317C131.638,102.792,130.729,101.504,129.869,100.284z"/>
<path fill-rule="evenodd" clip-rule="evenodd" fill="#F0E5E5" d="M134.25,80.063c-0.046,0.738-0.092,1.477-0.139,2.216
	c-0.381-0.258-0.762-0.515-1.143-0.771c-0.426-0.357-0.853-0.715-1.279-1.072c-0.405-0.657-0.996-1.267-1.181-1.981
	c-0.458-1.78-0.657-4.013,1.595-4.333c2.287-0.325,1.963,1.993,2.104,3.523C134.281,78.445,134.24,79.257,134.25,80.063z"/>
<path fill-rule="evenodd" clip-rule="evenodd" fill="#F0CFCF" d="M145.051,77.249c1.406,1.585,1.543,2.771-0.979,3.126
	C144.398,79.333,144.725,78.291,145.051,77.249z"/>
<path fill-rule="evenodd" clip-rule="evenodd" fill="#F35353" d="M131.968,88.841c-0.247,0.337-0.448,0.91-0.799,1.024
	c-0.634,0.206-0.851-0.378-0.653-0.85c0.17-0.407,0.617-0.698,0.941-1.04C131.605,88.227,131.754,88.478,131.968,88.841z"/>
<path fill-rule="evenodd" clip-rule="evenodd" fill="#FDFDFD" d="M131.689,80.436c0.427,0.357,0.854,0.715,1.279,1.072
	C132.542,81.15,132.116,80.793,131.689,80.436z"/>
<path fill-rule="evenodd" clip-rule="evenodd" fill="#F0E5E5" d="M136.175,83.342c0.284,0.176,0.569,0.353,0.854,0.528
	C136.744,83.694,136.459,83.518,136.175,83.342z"/>
<path fill-rule="evenodd" clip-rule="evenodd" fill="#FDFDFD" d="M215.748,58.362c0.521-0.919,1.041-1.839,1.563-2.757
	c6.92-0.494,13.84-0.469,20.76-0.017c0.337,0.576,0.674,1.152,1.01,1.729c-0.195,0.268-0.389,0.535-0.582,0.804
	c-0.461,0.111-0.922,0.222-1.383,0.333c-4.804-0.079-9.607-0.217-14.41-0.199c-1.443,0.006-3.646-0.747-3.406,2.134
	c-0.075,14.313-0.151,28.628-0.227,42.941c-1.083,0.681-1.007,1.357,0.006,2.031c0.209,0.955,0.418,1.91,0.629,2.865
	c-1.191,0.037-2.383,0.075-3.576,0.114C215.18,91.688,215.907,75.021,215.748,58.362z"/>
<path fill-rule="evenodd" clip-rule="evenodd" fill="#F0E5E5" d="M55.432,75.285c-1.324,1.953,2.392,6.583-3.299,6.218
	c-0.055-1.756-0.346-3.546-0.111-5.265C52.365,73.706,53.632,73.234,55.432,75.285z"/>
<path fill-rule="evenodd" clip-rule="evenodd" fill="#F0CFCF" d="M261.125,84.496c-0.047-0.5-0.094-1-0.141-1.5
	c2.057-1.875,0.756-4.339,1.109-6.509c0.576-3.529,1.996-3.334,4.043-1.084C266.014,79.287,267.144,83.862,261.125,84.496z"/>
<path fill-rule="evenodd" clip-rule="evenodd" fill="#FDFDFD" d="M332.008,111.347c-0.331,0.368-0.662,0.735-0.993,1.104
	c-4.894-0.093-9.839-0.031-14.15-2.865c-1.786-1.175-4.222-2.623,0.095-3.76c4.66,3.003,9.839,3.032,15.093,2.629
	C332.037,109.418,332.022,110.383,332.008,111.347z"/>
<path fill-rule="evenodd" clip-rule="evenodd" fill="#F00C0C" d="M129.869,100.284c0.86,1.22,1.769,2.508,3.519,1.784
	c1.449-0.599,1.36-2.015,1.369-3.317c0.009-1.134,0.064-2.268,0.1-3.401c3.443,2.71,3.237,7.487-0.663,8.826
	c-1.84,0.632-1.93,1.957-2.711,3.063c-1.266-2.19-4.199-3.623-3.126-6.877C128.861,100.335,129.365,100.31,129.869,100.284z"/>
<path fill-rule="evenodd" clip-rule="evenodd" fill="#F00C0C" d="M145.1,92.355c0.072,0.634,0.146,1.268,0.219,1.901
	C144.068,93.758,144.023,93.121,145.1,92.355z"/>
<path fill-rule="evenodd" clip-rule="evenodd" fill="#F40E0E" d="M222.121,103.357c-0.334-0.986-0.668-1.974-1.002-2.959
	c0.907,0.067,2.105-0.374,2.49,0.812C223.98,102.354,222.93,102.848,222.121,103.357z"/>
<path fill-rule="evenodd" clip-rule="evenodd" fill="#F40E0E" d="M228.102,91.32c0.252,0.351,0.504,0.702,0.755,1.053
	C228.421,92.154,227.039,92.612,228.102,91.32z"/>
<path fill-rule="evenodd" clip-rule="evenodd" fill="#F40E0E" d="M225.096,87.231c0.385,0.347,0.77,0.693,1.156,1.039
	C225.866,87.925,225.48,87.578,225.096,87.231z"/>
<path fill-rule="evenodd" clip-rule="evenodd" fill="#F0CFCF" d="M335.04,77.636c0.815,1.054,3.165,0.325,2.967,2.556
	c-4.435-0.841-8.757,1.934-13.213,0.41c-0.257-0.757-0.513-1.514-0.769-2.271c1.309-0.773,0.813-2.403,1.549-3.372
	c1.688-2.219,2.518-1.144,2.931,0.942c-0.347,1.031-0.343,1.89,1.024,2.074C331.366,77.862,333.203,77.749,335.04,77.636z"/>
<path fill-rule="evenodd" clip-rule="evenodd" fill="#F39C9C" d="M329.529,77.976c-1.367-0.185-1.371-1.043-1.024-2.074
	C328.848,76.592,329.188,77.284,329.529,77.976z"/>
<path fill-rule="evenodd" clip-rule="evenodd" fill="#BE2C2C" d="M7.053,100.355c0.105-11.667,0.213-23.334,0.318-35.001
	C8.957,71.221,7.729,77.2,8.078,83.118c0.34,5.77-0.722,11.613,0.941,17.312C8.364,100.405,7.708,100.381,7.053,100.355z"/>
<path fill-rule="evenodd" clip-rule="evenodd" fill="#F0E5E5" d="M12.057,104.428c-0.021,0.584-0.043,1.169-0.064,1.753
	c-0.615,0.673-1.23,1.347-1.846,2.02c-0.307,0.614-0.875,1.155-1.428,0.64c-1.094-1.021,0.436-1.988,0.286-3.039
	c0.386-0.372,0.772-0.744,1.159-1.116C10.795,104.6,11.426,104.514,12.057,104.428z"/>
<path fill-rule="evenodd" clip-rule="evenodd" fill="#F0E5E5" d="M7.053,100.355c0.655,0.025,1.312,0.05,1.967,0.074
	c-0.012,1.402-0.751,2.364-1.875,3.093C7.113,102.467,7.083,101.411,7.053,100.355z"/>
<path fill-rule="evenodd" clip-rule="evenodd" fill="#F0E5E5" d="M7.477,59.406c-0.793-0.228-1.461-0.664-0.847-1.515
	c0.427-0.593,1.034-0.263,1.407,0.312C7.851,58.604,7.664,59.005,7.477,59.406z"/>
<path fill-rule="evenodd" clip-rule="evenodd" fill="#929292" d="M25.076,58.483c0.6-0.41,1.166-0.595,1.58,0.236
	C26.131,58.642,25.604,58.563,25.076,58.483z"/>
<path fill-rule="evenodd" clip-rule="evenodd" fill="#BE2C2C" d="M11.94,63.38c0.068,0.657,0.137,1.314,0.206,1.972
	C11.055,64.802,10.842,64.16,11.94,63.38z"/>
<path fill-rule="evenodd" clip-rule="evenodd" fill="#BE2C2C" d="M7.34,63.454c-0.189-1.581,0.789-1.262,1.703-1.048
	C8.727,63.163,8.09,63.401,7.34,63.454z"/>
<path fill-rule="evenodd" clip-rule="evenodd" fill="#F20808" d="M12.057,104.428c-0.631,0.086-1.262,0.172-1.893,0.257
	c0.275-1.096,1.068-1.325,2.058-1.225C12.212,103.79,12.156,104.112,12.057,104.428z"/>
<path fill-rule="evenodd" clip-rule="evenodd" fill="#F0E5E5" d="M8.98,62.058c-0.003-0.323,0.059-0.633,0.186-0.93
	c0.195,0.28,0.391,0.563,0.585,0.844C9.494,62,9.238,62.029,8.98,62.058z"/>
<path fill-rule="evenodd" clip-rule="evenodd" fill="#F0E5E5" d="M31.159,60.314c0.349,0.073,0.698,0.147,1.048,0.224
	c-0.047,0.277-0.09,0.553-0.126,0.83C31.773,61.018,31.467,60.666,31.159,60.314z"/>
<path fill-rule="evenodd" clip-rule="evenodd" fill="#F40E0E" d="M292.926,80.29c-2.245,0.739-4.494,1.446-6.912,1.063l0.043,0.039
	c-0.016-0.68-0.03-1.359-0.046-2.04c2.351,0.367,3.042-1.18,3.574-3.012c0.279-0.961,0.692-1.98-0.319-2.608
	c-0.988-0.613-1.834-0.022-2.439,0.864c-0.439-0.036-0.879-0.072-1.318-0.108c-0.5-0.07-1-0.141-1.501-0.211
	c0.052-2.031,0.491-3.775,2.972-4.006c1.527,1.687,1.826,0.438,2.096-0.876c3.133-1.268,5.177,1.885,7.978,1.964
	c-0.226,1.644,2.001,3.146,0.282,4.875c-1.33-1.291-2.788-3.817-3.456,0.438C293.686,77.897,293.25,79.085,292.926,80.29z"/>
<path fill-rule="evenodd" clip-rule="evenodd" fill="#F80202" d="M221.067,67.359c-0.007-2.242-0.013-4.483-0.019-6.728
	c4.068-0.05,8.136-0.098,12.201-0.147c0.127,0.412,0.257,0.825,0.387,1.238c-1.816,1.139-3.632,2.278-5.448,3.418
	c-0.696,1.291-1.933,1.186-3.12,1.208c-0.347,0.329-0.693,0.658-1.039,0.987c-0.323,0.003-0.646,0.009-0.969,0.017
	C222.396,67.354,221.732,67.356,221.067,67.359z"/>
<path fill-rule="evenodd" clip-rule="evenodd" fill="#A72727" d="M233.252,60.486c-4.067,0.048-8.135,0.096-12.203,0.146
	c-0.584-0.08-1.167-0.162-1.75-0.244c-0.239-2.88,1.963-2.127,3.406-2.133c4.803-0.018,9.606,0.12,14.408,0.199
	c0.098,0.831,0.107,1.626-0.834,2.031C235.271,60.485,234.262,60.486,233.252,60.486z"/>
<path fill-rule="evenodd" clip-rule="evenodd" fill="#F3E9E9" d="M219.078,105.361c-1.013-0.674-1.089-1.351-0.006-2.031
	C220.354,104.004,219.885,104.682,219.078,105.361z"/>
<path fill-rule="evenodd" clip-rule="evenodd" fill="#F40E0E" d="M221.067,67.359c0.665-0.003,1.329-0.005,1.993-0.007
	c-0.002,0.663-0.004,1.326-0.005,1.989c-0.661-0.002-1.321-0.004-1.981-0.007C221.072,68.677,221.07,68.018,221.067,67.359z"/>
<path fill-rule="evenodd" clip-rule="evenodd" fill="#F40E0E" d="M222.004,78.339c0.861,0.422,1.049,1.175,1.003,2.043
	C222.167,79.949,222.006,79.184,222.004,78.339z"/>
<path fill-rule="evenodd" clip-rule="evenodd" fill="#F3E9E9" d="M257.105,67.851c0.049-0.706,0.247-1.303,1.065-1.439
	C258.584,67.459,257.646,67.508,257.105,67.851z"/>
<path fill-rule="evenodd" clip-rule="evenodd" fill="#F35353" d="M285.508,74.487c0.439,0.036,0.879,0.072,1.32,0.107
	c-0.271,1.585-0.545,3.171-0.817,4.757c0.016,0.681,0.03,1.36,0.046,2.04c-0.998-0.008-1.998-0.016-2.997-0.023
	c-0.224-0.207-0.256-0.441-0.099-0.702c0.069-1.019,0.139-2.038,0.207-3.06C284.998,77.354,285.201,75.882,285.508,74.487z"/>
<path fill-rule="evenodd" clip-rule="evenodd" fill="#F20808" d="M285.508,74.487c-0.307,1.395-0.51,2.867-2.34,3.119
	c-0.07-1.196-0.36-2.45,0.84-3.329C284.508,74.347,285.008,74.417,285.508,74.487z"/>
<path fill-rule="evenodd" clip-rule="evenodd" fill="#F20808" d="M289.074,69.395c-0.27,1.314-0.568,2.563-2.096,0.876
	C287.479,69.506,288.231,69.341,289.074,69.395z"/>
<path fill-rule="evenodd" clip-rule="evenodd" fill="#B43C3C" d="M320.001,80.682c0.372-0.024,0.745-0.048,1.118-0.071
	C320.746,80.635,320.373,80.658,320.001,80.682z"/>
<path fill-rule="evenodd" clip-rule="evenodd" fill="#F20808" d="M223.056,69.342c0.001-0.663,0.003-1.326,0.005-1.989
	c0.322-0.008,0.646-0.014,0.969-0.017c0.347-0.329,0.693-0.658,1.039-0.987c1.188-0.022,2.424,0.083,3.12-1.208
	c4.413-0.116,7.815-2.44,11.079-5.068c0.514-0.132,1.028-0.264,1.543-0.396c0.499,0.117,0.998,0.234,1.498,0.352
	c0.254,0.162,0.531,0.247,0.832,0.256c0.913,1.069,1.826,2.14,2.739,3.21l0.014,0.011c0.06,0.947,0.118,1.896,0.177,2.843
	c-2.797,1.663-4.924,3.902-6.025,7.021l0.027-0.056c-0.666,0.032-1.031,0.364-1.047,1.047l0.039-0.044
	c-0.337,0.01-0.674,0.02-1.011,0.028c-3.474-0.371-0.886-3.804-2.566-5.081c-0.504-1.053-1.041-2.117-2.431-2.068
	c-1.377,0.048-1.175,1.318-1.523,2.152C228.707,68.965,225.88,71.572,223.056,69.342z"/>
<path fill-rule="evenodd" clip-rule="evenodd" fill="#FDFDFD" d="M243.141,60.284c-0.301-0.009-0.578-0.094-0.833-0.256
	c-0.304-0.952-0.755-1.269-1.497-0.352c-0.515,0.132-1.029,0.264-1.545,0.396c-0.258-0.65-0.513-1.302-0.768-1.952
	c0.193-0.269,0.387-0.536,0.582-0.804C240.554,58.142,244.748,55.242,243.141,60.284z"/>
<path fill-rule="evenodd" clip-rule="evenodd" fill="#FDFDFD" d="M245.88,63.494c0.319-0.281,0.64-0.563,0.96-0.845
	c0.103,0.158,0.206,0.315,0.31,0.473c-0.419,0.128-0.837,0.255-1.255,0.383C245.894,63.505,245.88,63.494,245.88,63.494z"/>
<path fill-rule="evenodd" clip-rule="evenodd" fill="#FDFDFD" d="M389.44,112.546c0.099,0.11,0.204,0.231,0.312,0.352
	c-0.268,0.108-0.527,0.254-0.805,0.306c-0.102,0.02-0.245-0.183-0.369-0.283C388.854,112.801,389.129,112.682,389.44,112.546z"/>
<path fill-rule="evenodd" clip-rule="evenodd" fill="#F0E5E5" d="M32.2,60.567c-0.071-0.977-0.144-1.953-0.216-2.93
	c0.271-0.067,0.545-0.074,0.818-0.02c0.117,0.266,0.195,0.542,0.234,0.828c-0.088,0.722-0.176,1.444-0.265,2.166l-0.298,0.128
	L32.2,60.567z"/>
<path fill-rule="evenodd" clip-rule="evenodd" fill="#FDFDFD" d="M32.772,60.612c0.089-0.722,0.177-1.444,0.265-2.166
	c0.734,0.426,1.256,0.967,1.036,1.91C33.64,60.441,33.206,60.526,32.772,60.612z"/>
<path fill-rule="evenodd" clip-rule="evenodd" fill="#EB8383" d="M238.054,74.344c0.337-0.009,0.674-0.019,1.011-0.028
	c0.465,1.068-0.202,1.575-1.002,2.016C238.06,75.669,238.057,75.007,238.054,74.344z"/>
<path fill-rule="evenodd" clip-rule="evenodd" fill="#EB8383" d="M239.025,74.359c0.016-0.683,0.381-1.015,1.047-1.047
	C240.177,74.115,239.828,74.465,239.025,74.359z"/>
<path fill-rule="evenodd" clip-rule="evenodd" fill="#FDFDFD" d="M336.192,66.202c0.378,0.309,0.757,0.617,1.137,0.925
	c-0.493,0.57-1.046,1.39-1.794,0.511C335.07,67.091,335.663,66.55,336.192,66.202z"/>
<path fill-rule="evenodd" clip-rule="evenodd" fill="#FDFDFD" d="M46.097,67.319c-0.479-0.439-0.958-0.879-1.438-1.318
	c0.559-0.402,1.207-0.69,1.646,0.016C46.479,66.3,46.18,66.876,46.097,67.319z"/>
<path fill-rule="evenodd" clip-rule="evenodd" fill="#F0CFCF" d="M172.905,101.636c-0.589-0.439-1.177-0.879-1.765-1.318
	c-0.076-0.318-0.153-0.638-0.229-0.956c-0.015-1.003-0.028-2.006-0.042-3.009c-0.05-0.674-0.1-1.348-0.148-2.021
	c0.55-5.004,0.416-10.013,0.124-15.022c0.204-1.605,0.409-3.21,0.613-4.814c2.085-1.17,3.063-0.096,3.639,1.796
	c-0.038,8.184-0.075,16.366-0.112,24.548l0.01-0.061C174.297,101.063,173.602,101.35,172.905,101.636z"/>
<path fill-rule="evenodd" clip-rule="evenodd" fill="#AF0808" d="M174.984,100.838c0.037-8.182,0.074-16.364,0.112-24.548
	c1.837,1.967,0.833,4.387,1.006,6.603c0.331,4.236-0.509,8.524,0.781,12.738C177.508,97.669,176.796,99.531,174.984,100.838z"/>
<path fill-rule="evenodd" clip-rule="evenodd" fill="#F40E0E" d="M171.458,74.494c-0.204,1.604-0.409,3.209-0.613,4.814
	c-1.04-1.077-1.651-2.354-1.778-3.852c0.095-0.375,0.189-0.749,0.287-1.123C170.057,74.387,170.758,74.44,171.458,74.494z"/>
<path fill-rule="evenodd" clip-rule="evenodd" fill="#F40E0E" d="M170.721,94.331c0.049,0.674,0.099,1.348,0.148,2.021
	c-1.477-0.092-1.787,1.441-2.794,2.004c0,0-0.071-0.064-0.071-0.063C168.102,96.418,167.588,94.125,170.721,94.331z"/>
<path fill-rule="evenodd" clip-rule="evenodd" fill="#F40E0E" d="M181.012,91.34c-0.019,0.711,0.374,1.102,1.014,1.299
	c-0.48,2.34-2.031,0.247-2.963,0.717C179.087,92.078,179.718,91.389,181.012,91.34z"/>
<path fill-rule="evenodd" clip-rule="evenodd" fill="#AF0808" d="M172.905,101.636c0.696-0.286,1.392-0.572,2.089-0.858
	c0.07,0.749,0.275,1.62-0.576,2.006C173.373,103.256,173.217,102.282,172.905,101.636z"/>
<path fill-rule="evenodd" clip-rule="evenodd" fill="#F35353" d="M182.035,73.319c1.176,0.71,1.153,1.417-0.004,2.122
	C182.032,74.734,182.033,74.027,182.035,73.319z"/>
<path fill-rule="evenodd" clip-rule="evenodd" fill="#F40E0E" d="M170.911,99.361c0.076,0.318,0.153,0.638,0.229,0.956
	c-0.184-0.204-0.381-0.397-0.531-0.622C170.589,99.665,170.805,99.477,170.911,99.361z"/>
<path fill-rule="evenodd" clip-rule="evenodd" fill="#EB8383" d="M197.021,84.359c-0.063,0.752,0.16,1.651-0.955,1.862
	c-0.181-0.446-0.363-0.895-0.545-1.342c0.211-0.212,0.422-0.423,0.631-0.636C196.451,84.224,196.74,84.263,197.021,84.359z"/>
<path fill-rule="evenodd" clip-rule="evenodd" fill="#AF0808" d="M195.521,84.88c0.182,0.447,0.364,0.896,0.545,1.342
	c-2.315-0.077-3.103,1.099-3.034,3.328c0.095,3.086-0.038,6.179-0.072,9.271c-2.265-5.041-0.884-10.297-0.899-15.472
	C193.214,83.859,194.367,84.369,195.521,84.88z"/>
<path fill-rule="evenodd" clip-rule="evenodd" fill="#F80202" d="M170.721,94.331c-3.133-0.206-2.619,2.087-2.717,3.962
	c-3.242-0.472-4.216,2.384-5.981,4.079c-1.63-8.483-1.528-16.967-0.168-25.481c0.38-2.377,1.554-3.908,3.638-4.895
	c1.193,1.152,2.383,2.306,3.574,3.46c0.127,1.499,0.738,2.775,1.778,3.853C171.137,84.318,171.271,89.327,170.721,94.331z"/>
<path fill-rule="evenodd" clip-rule="evenodd" fill="#F3E9E9" d="M231.533,69.347c0.349-0.834,0.146-2.104,1.523-2.152
	c1.39-0.049,1.927,1.016,2.431,2.068c-0.093,1.632-0.181,3.265-0.282,4.896c-0.127,2.043-0.775,3.564-3.267,3.194
	C231.804,74.685,231.668,72.016,231.533,69.347z"/>
<path fill-rule="evenodd" clip-rule="evenodd" fill="#EB8383" d="M238.498,58.121c0.255,0.65,0.51,1.302,0.768,1.952
	c-3.262,2.627-6.664,4.951-11.077,5.067c1.816-1.14,3.632-2.279,5.444-3.419c0.879-0.413,1.763-0.824,2.646-1.236
	c0.941-0.405,0.932-1.2,0.834-2.031C237.576,58.343,238.037,58.232,238.498,58.121z"/>
<path fill-rule="evenodd" clip-rule="evenodd" fill="#F90707" d="M286.011,79.352c0.272-1.586,0.546-3.172,0.817-4.757
	c0.604-0.886,1.449-1.477,2.438-0.863c1.012,0.628,0.599,1.647,0.319,2.608C289.053,78.172,288.361,79.719,286.011,79.352z"/>
<path fill-rule="evenodd" clip-rule="evenodd" fill="#BE2C2C" d="M236.279,60.485c-0.884,0.412-1.768,0.823-2.646,1.236
	c-0.126-0.412-0.256-0.825-0.383-1.237C234.262,60.486,235.271,60.485,236.279,60.485z"/>
<path fill-rule="evenodd" clip-rule="evenodd" fill="#F40E0E" d="M225.068,66.349c-0.346,0.329-0.692,0.658-1.039,0.987
	C224.375,67.007,224.722,66.678,225.068,66.349z"/>
<path fill-rule="evenodd" clip-rule="evenodd" fill="#EB8383" d="M240.811,59.677c0.742-0.917,1.193-0.601,1.497,0.352
	C241.809,59.911,241.31,59.794,240.811,59.677z"/>
</svg>
